{"glyphs":{"0":{"ha":1240,"x_min":83,"x_max":1157,"o":"m 390 0 q 249 17 307 0 q 153 66 190 35 q 100 140 117 97 q 83 236 83 183 l 83 742 q 100 838 83 794 q 153 912 117 881 q 249 960 190 943 q 390 978 307 978 l 850 978 q 992 960 933 978 q 1087 912 1050 943 q 1140 838 1124 881 q 1157 742 1157 794 l 1157 236 q 1140 140 1157 183 q 1087 66 1124 97 q 992 17 1050 35 q 850 0 933 0 l 390 0 m 972 743 q 850 833 972 833 l 390 833 q 268 743 268 833 l 268 235 q 390 144 268 144 l 850 144 q 972 235 972 144 l 972 743 z "},"1":{"ha":546,"x_min":7,"x_max":454,"o":"m 269 0 l 269 840 l 201 763 l 7 763 l 197 978 l 454 978 l 454 0 l 269 0 z "},"2":{"ha":1164,"x_min":74,"x_max":1085,"o":"m 74 0 l 74 357 q 90 453 74 410 q 144 527 107 496 q 239 576 181 558 q 381 593 297 593 l 778 593 q 900 683 900 593 l 900 743 q 778 833 900 833 l 126 833 l 126 978 l 778 978 q 919 960 861 978 q 1015 912 978 943 q 1068 838 1051 881 q 1085 742 1085 794 l 1085 685 q 1068 589 1085 632 q 1015 515 1051 546 q 919 466 978 483 q 778 449 861 449 l 381 449 q 258 358 258 449 l 258 144 l 1085 144 l 1085 0 l 74 0 z "},"3":{"ha":1124,"x_min":75,"x_max":1040,"o":"m 75 0 l 75 144 l 731 144 q 821 165 786 144 q 856 246 856 186 l 856 368 q 821 433 856 414 q 731 451 786 451 l 117 451 l 117 596 l 728 596 q 818 614 793 596 q 843 672 843 632 l 843 757 q 818 815 843 797 q 728 833 793 833 l 75 833 l 75 978 l 728 978 q 866 963 808 978 q 959 922 924 949 q 1011 855 994 894 q 1028 767 1028 815 l 1028 693 q 997 585 1028 629 q 913 531 965 542 q 1004 478 968 515 q 1040 371 1040 442 l 1040 211 q 1026 131 1040 169 q 976 64 1011 93 q 881 17 940 35 q 731 0 821 0 l 75 0 z "},"4":{"ha":1224,"x_min":22,"x_max":1192,"o":"m 904 0 l 904 167 l 22 167 l 22 283 l 539 978 l 739 978 l 242 311 l 904 311 l 904 978 l 1089 978 l 1089 311 l 1192 311 l 1192 167 l 1089 167 l 1089 0 l 904 0 z "},"5":{"ha":1160,"x_min":85,"x_max":1090,"o":"m 85 0 l 85 144 l 783 144 q 906 235 906 144 l 906 410 q 783 500 906 500 l 85 500 l 85 978 l 1058 978 l 1058 833 l 269 833 l 269 644 l 783 644 q 925 627 867 644 q 1020 578 983 610 q 1074 504 1057 547 q 1090 408 1090 461 l 1090 236 q 1074 140 1090 183 q 1020 66 1057 97 q 925 17 983 35 q 783 0 867 0 l 85 0 z "},"6":{"ha":1271,"x_min":83,"x_max":1192,"o":"m 390 0 q 249 17 307 0 q 153 66 190 35 q 100 140 117 97 q 83 236 83 183 l 83 742 q 100 838 83 794 q 153 912 117 881 q 249 960 190 943 q 390 978 307 978 l 1146 978 l 1146 833 l 390 833 q 268 743 268 833 l 268 631 l 885 631 q 1026 613 968 631 q 1122 565 1085 596 q 1175 490 1158 533 q 1192 394 1192 447 l 1192 236 q 1175 140 1192 183 q 1122 66 1158 97 q 1026 17 1085 35 q 885 0 968 0 l 390 0 m 1007 396 q 885 486 1007 486 l 268 486 l 268 235 q 390 144 268 144 l 885 144 q 1007 235 1007 144 l 1007 396 z "},"7":{"ha":1167,"x_min":46,"x_max":1140,"o":"m 279 0 l 932 833 l 46 833 l 46 978 l 1140 978 l 1140 861 l 489 0 l 279 0 z "},"8":{"ha":1279,"x_min":83,"x_max":1196,"o":"m 393 0 q 243 17 303 0 q 148 64 183 35 q 98 131 113 93 q 83 211 83 169 l 83 371 q 119 478 83 442 q 211 531 156 515 q 127 585 158 542 q 96 693 96 629 l 96 767 q 113 855 96 815 q 165 922 129 894 q 257 963 200 949 q 396 978 314 978 l 883 978 q 1022 963 964 978 q 1115 922 1079 949 q 1167 855 1150 894 q 1183 767 1183 815 l 1183 693 q 1152 585 1183 629 q 1068 531 1121 542 q 1160 478 1124 515 q 1196 371 1196 442 l 1196 211 q 1181 131 1196 169 q 1131 64 1167 93 q 1036 17 1096 35 q 886 0 976 0 l 393 0 m 1011 368 q 976 433 1011 414 q 886 451 942 451 l 393 451 q 303 433 338 451 q 268 368 268 414 l 268 246 q 303 165 268 186 q 393 144 338 144 l 886 144 q 976 165 942 144 q 1011 246 1011 186 l 1011 368 m 999 757 q 974 815 999 797 q 883 833 949 833 l 396 833 q 306 815 331 833 q 281 757 281 797 l 281 672 q 306 614 281 632 q 396 596 331 596 l 883 596 q 974 614 949 596 q 999 672 999 632 l 999 757 z "},"9":{"ha":1275,"x_min":83,"x_max":1192,"o":"m 136 0 l 136 144 l 885 144 q 1007 235 1007 144 l 1007 372 l 390 372 q 249 390 307 372 q 153 438 190 407 q 100 513 117 469 q 83 608 83 556 l 83 742 q 100 838 83 794 q 153 912 117 881 q 249 960 190 943 q 390 978 307 978 l 885 978 q 1026 960 968 978 q 1122 912 1085 943 q 1175 838 1158 881 q 1192 742 1192 794 l 1192 236 q 1175 140 1192 183 q 1122 66 1158 97 q 1026 17 1085 35 q 885 0 968 0 l 136 0 m 1007 743 q 885 833 1007 833 l 390 833 q 268 743 268 833 l 268 607 q 390 517 268 517 l 1007 517 l 1007 743 z "},"\u0017":{"ha":694,"x_min":0,"x_max":0,"o":""}," ":{"ha":694,"x_min":0,"x_max":0,"o":""},"!":{"ha":381,"x_min":83,"x_max":296,"o":"m 108 0 l 108 181 l 271 181 l 271 0 l 108 0 m 125 278 l 83 978 l 296 978 l 254 278 l 125 278 z "},"\"":{"ha":574,"x_min":83,"x_max":479,"o":"m 132 667 l 83 811 l 83 978 l 228 978 l 228 810 l 175 667 l 132 667 m 375 667 l 336 814 l 336 978 l 479 978 l 479 814 l 435 667 l 375 667 z "},"#":{"ha":819,"x_min":74,"x_max":754,"o":"m 490 583 l 338 583 l 338 411 l 490 411 l 490 583 m 490 0 l 490 286 l 338 286 l 338 0 l 213 0 l 213 286 l 74 286 l 74 411 l 213 411 l 213 583 l 74 583 l 74 708 l 213 708 l 213 978 l 338 978 l 338 708 l 490 708 l 490 978 l 615 978 l 615 708 l 754 708 l 754 583 l 615 583 l 615 411 l 754 411 l 754 286 l 615 286 l 615 0 l 490 0 z "},"$":{"ha":811,"x_min":68,"x_max":765,"o":"m 349 0 l 349 160 l 92 160 l 92 294 l 532 294 q 601 342 601 294 l 601 390 q 532 438 601 438 l 303 438 q 194 451 239 438 q 122 488 150 464 q 81 547 93 513 q 68 622 68 581 l 68 661 q 81 735 68 701 q 122 794 93 769 q 194 831 150 818 q 303 844 239 844 l 349 844 l 349 978 l 494 978 l 494 844 l 726 844 l 726 710 l 303 710 q 231 663 231 710 l 231 621 q 303 572 231 572 l 532 572 q 640 559 596 572 q 713 522 685 546 q 753 463 740 497 q 765 389 765 429 l 765 343 q 712 210 765 261 q 532 160 658 160 l 494 160 l 494 0 l 349 0 z "},"%":{"ha":1419,"x_min":83,"x_max":1336,"o":"m 83 0 m 236 503 q 118 535 153 503 q 83 621 83 568 l 83 874 q 118 959 83 926 q 236 992 153 992 l 467 992 q 585 959 550 992 q 619 874 619 926 l 619 621 q 585 535 619 568 q 467 503 550 503 l 236 503 m 528 874 q 467 919 528 919 l 236 919 q 175 874 175 919 l 175 619 q 236 575 175 575 l 467 575 q 528 619 528 575 l 528 874 m 150 -42 l 1154 1033 l 1269 1033 l 264 -42 l 150 -42 m 953 -14 q 835 19 869 -14 q 800 104 800 51 l 800 357 q 835 442 800 410 q 953 475 869 475 l 1183 475 q 1301 442 1267 475 q 1336 357 1336 410 l 1336 104 q 1301 19 1336 51 q 1183 -14 1267 -14 l 953 -14 m 1244 357 q 1183 403 1244 403 l 953 403 q 892 357 892 403 l 892 103 q 953 58 892 58 l 1183 58 q 1244 103 1244 58 l 1244 357 z "},"&":{"ha":1149,"x_min":83,"x_max":1128,"o":"m 393 0 q 243 17 303 0 q 148 64 183 35 q 98 131 113 93 q 83 211 83 169 l 83 371 q 119 478 83 442 q 211 531 156 515 q 127 585 158 542 q 96 693 96 629 l 96 767 q 113 855 96 815 q 165 922 129 894 q 257 963 200 949 q 396 978 314 978 l 839 978 l 839 833 l 396 833 q 306 815 331 833 q 281 757 281 797 l 281 672 q 306 614 281 632 q 396 596 331 596 l 1128 596 l 1128 451 l 1008 451 l 1008 0 l 393 0 m 824 451 l 393 451 q 303 433 338 451 q 268 368 268 414 l 268 246 q 303 165 268 186 q 393 144 338 144 l 824 144 l 824 451 z "},"'":{"ha":349,"x_min":83,"x_max":254,"o":"m 132 667 l 83 811 l 83 978 l 254 978 l 254 810 l 204 667 l 132 667 z "},"(":{"ha":418,"x_min":111,"x_max":404,"o":"m 276 -151 q 150 178 189 22 q 111 493 111 333 q 152 806 111 649 q 272 1131 193 963 l 401 1131 q 226 492 226 772 q 268 190 226 346 q 404 -151 310 33 l 276 -151 z "},")":{"ha":418,"x_min":14,"x_max":307,"o":"m 14 -151 q 149 190 107 33 q 192 492 192 346 q 17 1131 192 772 l 146 1131 q 266 806 225 963 q 307 493 307 649 q 268 178 307 333 q 142 -151 229 22 l 14 -151 z "},"*":{"ha":590,"x_min":46,"x_max":543,"o":"m 374 539 l 296 689 l 207 540 l 100 619 l 226 740 l 46 782 l 88 893 l 250 818 l 224 989 l 364 989 l 342 817 l 507 892 l 543 779 l 361 743 l 486 617 l 374 539 z "},"+":{"ha":754,"x_min":56,"x_max":697,"o":"m 325 183 l 325 453 l 56 453 l 56 556 l 325 556 l 325 825 l 428 825 l 428 556 l 697 556 l 697 453 l 428 453 l 428 183 l 325 183 z "},",":{"ha":374,"x_min":83,"x_max":274,"o":"m 83 -101 l 83 181 l 274 181 l 274 97 l 157 -101 l 83 -101 z "},"-":{"ha":579,"x_min":29,"x_max":549,"o":"m 29 446 l 29 600 l 549 600 l 549 446 l 29 446 z "},".":{"ha":396,"x_min":83,"x_max":301,"o":"m 83 0 l 83 181 l 301 181 l 301 0 l 83 0 z "},"/":{"ha":675,"x_min":10,"x_max":671,"o":"m 10 -56 l 549 1033 l 671 1033 l 132 -56 l 10 -56 z "},":":{"ha":351,"x_min":81,"x_max":271,"o":"m 81 556 l 81 736 l 271 736 l 271 556 l 81 556 m 81 0 l 81 181 l 271 181 l 271 0 l 81 0 z "},";":{"ha":367,"x_min":88,"x_max":278,"o":"m 88 556 l 88 736 l 278 736 l 278 556 l 88 556 m 88 -101 l 88 181 l 278 181 l 278 97 l 161 -101 l 88 -101 z "},"<":{"ha":746,"x_min":88,"x_max":657,"o":"m 88 460 l 88 551 l 657 879 l 657 758 l 208 504 l 657 249 l 657 128 l 88 460 z "},"=":{"ha":746,"x_min":56,"x_max":697,"o":"m 56 592 l 56 694 l 697 694 l 697 592 l 56 592 m 56 314 l 56 417 l 697 417 l 697 314 l 56 314 z "},">":{"ha":746,"x_min":88,"x_max":657,"o":"m 88 128 l 88 249 l 536 504 l 88 758 l 88 879 l 657 551 l 657 460 l 88 128 z "},"?":{"ha":935,"x_min":64,"x_max":915,"o":"m 915 685 q 899 589 915 632 q 845 515 882 546 q 750 466 808 483 q 608 449 692 449 l 457 449 q 335 358 335 449 l 335 272 l 178 272 l 178 357 q 194 453 178 410 q 249 527 211 496 q 344 576 286 558 q 486 593 403 593 l 608 593 q 731 683 731 593 l 731 743 q 608 833 731 833 l 64 833 l 64 978 l 608 978 q 750 960 692 978 q 845 912 808 943 q 899 838 882 881 q 915 742 915 794 l 915 685 m 178 0 l 178 181 l 335 181 l 335 0 l 178 0 z "},"@":{"ha":1244,"x_min":83,"x_max":1161,"o":"m 390 -200 q 249 -183 307 -200 q 153 -134 190 -165 q 100 -60 117 -103 q 83 36 83 -17 l 83 742 q 100 838 83 794 q 153 912 117 881 q 249 960 190 943 q 390 978 307 978 l 854 978 q 996 960 938 978 q 1091 912 1054 943 q 1144 838 1128 881 q 1161 742 1161 794 l 1161 346 q 1144 250 1161 293 q 1091 176 1128 207 q 996 127 1054 144 q 854 110 938 110 l 732 110 q 590 127 649 110 q 495 176 532 144 q 442 250 458 207 q 425 346 425 293 l 425 439 q 442 535 425 492 q 495 609 458 578 q 590 658 532 640 q 732 675 649 675 l 976 675 l 976 743 q 854 833 976 833 l 390 833 q 268 743 268 833 l 268 35 q 390 -56 268 -56 l 1156 -56 l 1156 -200 l 390 -200 m 976 531 l 732 531 q 610 440 610 531 l 610 344 q 732 254 610 254 l 854 254 q 976 344 976 254 l 976 531 z "},"A":{"ha":1431,"x_min":0,"x_max":1431,"o":"m 1222 0 l 718 788 l 206 0 l 0 0 l 650 978 l 785 978 l 1431 0 l 1222 0 z "},"B":{"ha":1282,"x_min":90,"x_max":1199,"o":"m 90 0 l 90 978 l 886 978 q 1024 963 967 978 q 1117 922 1082 949 q 1169 855 1153 894 q 1186 767 1186 815 l 1186 676 q 1155 569 1186 613 q 1071 514 1124 525 q 1163 462 1126 499 q 1199 354 1199 425 l 1199 211 q 1184 131 1199 169 q 1134 64 1169 93 q 1039 17 1099 35 q 889 0 979 0 l 90 0 m 1014 351 q 979 416 1014 397 q 889 435 944 435 l 275 435 l 275 144 l 889 144 q 979 165 944 144 q 1014 246 1014 186 l 1014 351 m 1001 757 q 976 815 1001 797 q 886 833 951 833 l 275 833 l 275 579 l 886 579 q 976 597 951 579 q 1001 656 1001 615 l 1001 757 z "},"C":{"ha":1243,"x_min":83,"x_max":1178,"o":"m 390 0 q 249 17 307 0 q 153 66 190 35 q 100 140 117 97 q 83 236 83 183 l 83 742 q 100 838 83 794 q 153 912 117 881 q 249 960 190 943 q 390 978 307 978 l 1178 978 l 1178 833 l 390 833 q 268 743 268 833 l 268 235 q 390 144 268 144 l 1178 144 l 1178 0 l 390 0 z "},"D":{"ha":1431,"x_min":90,"x_max":1347,"o":"m 90 0 l 90 978 l 986 978 q 1160 960 1090 978 q 1271 906 1229 942 q 1330 815 1313 869 q 1347 689 1347 761 l 1347 279 q 1330 158 1347 210 q 1271 71 1313 106 q 1160 18 1229 36 q 986 0 1090 0 l 90 0 m 1163 689 q 1154 758 1163 731 q 1126 803 1146 786 q 1072 826 1106 819 q 986 833 1038 833 l 275 833 l 275 144 l 986 144 q 1072 151 1038 144 q 1126 174 1106 158 q 1154 215 1146 189 q 1163 281 1163 242 l 1163 689 z "},"E":{"ha":1163,"x_min":90,"x_max":1096,"o":"m 90 0 l 90 978 l 1096 978 l 1096 833 l 275 833 l 275 589 l 1054 589 l 1054 444 l 275 444 l 275 144 l 1096 144 l 1096 0 l 90 0 z "},"F":{"ha":1106,"x_min":90,"x_max":1096,"o":"m 275 403 l 275 0 l 90 0 l 90 978 l 1096 978 l 1096 833 l 275 833 l 275 547 l 1040 547 l 1040 403 l 275 403 z "},"G":{"ha":1293,"x_min":83,"x_max":1213,"o":"m 432 0 q 83 211 83 0 l 83 767 q 432 978 83 978 l 1197 978 l 1197 833 l 432 833 q 268 767 268 833 l 268 211 q 432 144 268 144 l 864 144 q 1028 208 1028 144 l 1028 533 l 1213 533 l 1213 208 q 864 0 1213 0 l 432 0 z "},"H":{"ha":1350,"x_min":90,"x_max":1260,"o":"m 1075 0 l 1075 444 l 275 444 l 275 0 l 90 0 l 90 978 l 275 978 l 275 589 l 1075 589 l 1075 978 l 1260 978 l 1260 0 l 1075 0 z "},"I":{"ha":379,"x_min":97,"x_max":282,"o":"m 97 0 l 97 978 l 282 978 l 282 0 l 97 0 z "},"J":{"ha":672,"x_min":13,"x_max":586,"o":"m 13 0 l 13 144 l 281 144 q 373 160 344 144 q 401 208 401 176 l 401 978 l 586 978 l 586 208 q 569 124 586 163 q 515 58 551 86 q 419 15 478 31 q 281 0 361 0 l 13 0 z "},"K":{"ha":1193,"x_min":90,"x_max":1176,"o":"m 963 0 l 593 436 l 275 436 l 275 0 l 90 0 l 90 978 l 275 978 l 275 581 l 589 581 l 957 978 l 1176 978 l 742 522 l 1175 0 l 963 0 z "},"L":{"ha":1108,"x_min":90,"x_max":1069,"o":"m 90 0 l 90 978 l 276 978 l 276 144 l 1069 144 l 1069 0 l 90 0 z "},"M":{"ha":1669,"x_min":90,"x_max":1579,"o":"m 1408 0 l 1408 685 l 911 0 l 760 0 l 261 683 l 261 0 l 90 0 l 90 978 l 263 978 l 843 179 l 1421 978 l 1579 978 l 1579 0 l 1408 0 z "},"N":{"ha":1475,"x_min":90,"x_max":1385,"o":"m 1294 0 l 251 761 l 251 0 l 90 0 l 90 978 l 250 978 l 1224 251 l 1224 978 l 1385 978 l 1385 0 l 1294 0 z "},"O":{"ha":1426,"x_min":83,"x_max":1343,"o":"m 390 0 q 249 17 307 0 q 153 66 190 35 q 100 140 117 97 q 83 236 83 183 l 83 742 q 100 838 83 794 q 153 912 117 881 q 249 960 190 943 q 390 978 307 978 l 1036 978 q 1178 960 1119 978 q 1273 912 1236 943 q 1326 838 1310 881 q 1343 742 1343 794 l 1343 236 q 1326 140 1343 183 q 1273 66 1310 97 q 1178 17 1236 35 q 1036 0 1119 0 l 390 0 m 1158 743 q 1036 833 1158 833 l 390 833 q 268 743 268 833 l 268 235 q 390 144 268 144 l 1036 144 q 1158 235 1158 144 l 1158 743 z "},"P":{"ha":1238,"x_min":90,"x_max":1199,"o":"m 275 361 l 275 0 l 90 0 l 90 978 l 892 978 q 1033 960 975 978 q 1128 912 1092 943 q 1182 838 1165 881 q 1199 742 1199 794 l 1199 597 q 1182 501 1199 544 q 1128 427 1165 458 q 1033 378 1092 396 q 892 361 975 361 l 275 361 m 1014 743 q 892 833 1014 833 l 275 833 l 275 506 l 892 506 q 1014 596 1014 506 l 1014 743 z "},"Q":{"ha":1426,"x_min":83,"x_max":1343,"o":"m 1014 -217 l 896 0 l 390 0 q 249 17 307 0 q 153 66 190 35 q 100 140 117 97 q 83 236 83 183 l 83 742 q 100 838 83 794 q 153 912 117 881 q 249 960 190 943 q 390 978 307 978 l 1036 978 q 1178 960 1119 978 q 1273 912 1236 943 q 1326 838 1310 881 q 1343 742 1343 794 l 1343 236 q 1284 76 1343 139 q 1086 1 1225 13 l 1211 -217 l 1014 -217 m 1158 743 q 1036 833 1158 833 l 390 833 q 268 743 268 833 l 268 235 q 390 144 268 144 l 1036 144 q 1158 235 1158 144 l 1158 743 z "},"R":{"ha":1286,"x_min":90,"x_max":1228,"o":"m 1019 0 l 790 436 l 275 436 l 275 0 l 90 0 l 90 978 l 921 978 q 1063 960 1004 978 q 1158 912 1121 943 q 1211 838 1194 881 q 1228 742 1228 794 l 1228 672 q 1172 515 1228 578 q 986 439 1117 451 l 1217 0 l 1019 0 m 1043 743 q 921 833 1043 833 l 275 833 l 275 581 l 921 581 q 1043 671 1043 581 l 1043 743 z "},"S":{"ha":1321,"x_min":71,"x_max":1260,"o":"m 103 0 l 103 144 l 953 144 q 1075 235 1075 144 l 1075 358 q 953 449 1075 449 l 378 449 q 236 466 294 449 q 141 515 178 483 q 88 589 104 546 q 71 685 71 632 l 71 742 q 88 838 71 794 q 141 912 104 881 q 236 960 178 943 q 378 978 294 978 l 1206 978 l 1206 833 l 378 833 q 256 743 256 833 l 256 683 q 378 593 256 593 l 953 593 q 1094 576 1036 593 q 1190 527 1153 558 q 1243 453 1226 496 q 1260 357 1260 410 l 1260 236 q 1243 140 1260 183 q 1190 66 1226 97 q 1094 17 1153 35 q 953 0 1036 0 l 103 0 z "},"T":{"ha":1261,"x_min":32,"x_max":1228,"o":"m 544 0 l 544 833 l 32 833 l 32 978 l 1228 978 l 1228 833 l 729 833 l 729 0 l 544 0 z "},"U":{"ha":1393,"x_min":86,"x_max":1307,"o":"m 393 0 q 251 17 310 0 q 156 66 193 35 q 103 140 119 97 q 86 236 86 183 l 86 978 l 271 978 l 271 235 q 393 144 271 144 l 1000 144 q 1122 235 1122 144 l 1122 978 l 1307 978 l 1307 236 q 1297 140 1307 183 q 1256 66 1286 97 q 1174 17 1226 35 q 1039 0 1122 0 l 393 0 z "},"V":{"ha":1431,"x_min":0,"x_max":1431,"o":"m 650 0 l 0 978 l 210 978 l 721 190 l 1226 978 l 1431 978 l 785 0 l 650 0 z "},"W":{"ha":1860,"x_min":0,"x_max":1860,"o":"m 1269 0 l 931 750 l 585 0 l 450 0 l 0 978 l 178 978 l 518 228 l 861 978 l 999 978 l 1338 228 l 1681 978 l 1860 978 l 1408 0 l 1269 0 z "},"X":{"ha":1383,"x_min":17,"x_max":1367,"o":"m 1128 0 l 692 390 l 258 0 l 17 0 l 575 489 l 17 978 l 257 978 l 692 586 l 1126 978 l 1364 978 l 810 496 l 1367 0 l 1128 0 z "},"Y":{"ha":1436,"x_min":0,"x_max":1436,"o":"m 628 0 l 628 397 l 0 978 l 236 978 l 719 531 l 1203 978 l 1436 978 l 813 397 l 813 0 l 628 0 z "},"Z":{"ha":1432,"x_min":67,"x_max":1381,"o":"m 67 0 l 67 125 l 1056 819 l 67 819 l 67 978 l 1381 978 l 1381 853 l 388 158 l 1381 158 l 1381 0 l 67 0 z "},"[":{"ha":378,"x_min":108,"x_max":340,"o":"m 108 -153 l 108 1131 l 340 1131 l 340 1028 l 238 1028 l 238 -53 l 340 -53 l 340 -153 l 108 -153 z "},"\\":{"ha":675,"x_min":10,"x_max":671,"o":"m 549 -56 l 10 1033 l 132 1033 l 671 -56 l 549 -56 z "},"]":{"ha":375,"x_min":35,"x_max":267,"o":"m 35 -153 l 35 -53 l 138 -53 l 138 1028 l 35 1028 l 35 1131 l 267 1131 l 267 -153 l 35 -153 z "},"^":{"ha":893,"x_min":67,"x_max":818,"o":"m 697 408 l 443 857 l 188 408 l 67 408 l 399 978 l 490 978 l 818 408 l 697 408 z "},"_":{"ha":904,"x_min":0,"x_max":904,"o":"m 0 -194 l 0 -78 l 904 -78 l 904 -194 l 0 -194 z "},"`":{"ha":594,"x_min":69,"x_max":525,"o":"m 69 1103 l 69 1260 l 525 1164 l 525 1049 l 69 1103 z "},"a":{"ha":1431,"x_min":0,"x_max":1431,"o":"m 0 0 m 1222 0 l 718 788 l 206 0 l 0 0 l 650 978 l 785 978 l 1431 0 l 1222 0 z "},"b":{"ha":1282,"x_min":90,"x_max":1199,"o":"m 90 0 m 90 0 l 90 978 l 886 978 q 1024 963 967 978 q 1117 922 1082 949 q 1169 855 1153 894 q 1186 767 1186 815 l 1186 676 q 1155 569 1186 613 q 1071 514 1124 525 q 1163 462 1126 499 q 1199 354 1199 425 l 1199 211 q 1184 131 1199 169 q 1134 64 1169 93 q 1039 17 1099 35 q 889 0 979 0 l 90 0 m 1014 351 q 979 416 1014 397 q 889 435 944 435 l 275 435 l 275 144 l 889 144 q 979 165 944 144 q 1014 246 1014 186 l 1014 351 m 1001 757 q 976 815 1001 797 q 886 833 951 833 l 275 833 l 275 579 l 886 579 q 976 597 951 579 q 1001 656 1001 615 l 1001 757 z "},"c":{"ha":1243,"x_min":83,"x_max":1178,"o":"m 83 0 m 390 0 q 249 17 307 0 q 153 66 190 35 q 100 140 117 97 q 83 236 83 183 l 83 742 q 100 838 83 794 q 153 912 117 881 q 249 960 190 943 q 390 978 307 978 l 1178 978 l 1178 833 l 390 833 q 268 743 268 833 l 268 235 q 390 144 268 144 l 1178 144 l 1178 0 l 390 0 z "},"d":{"ha":1431,"x_min":90,"x_max":1347,"o":"m 90 0 m 90 0 l 90 978 l 986 978 q 1160 960 1090 978 q 1271 906 1229 942 q 1330 815 1313 869 q 1347 689 1347 761 l 1347 279 q 1330 158 1347 210 q 1271 71 1313 106 q 1160 18 1229 36 q 986 0 1090 0 l 90 0 m 1163 689 q 1154 758 1163 731 q 1126 803 1146 786 q 1072 826 1106 819 q 986 833 1038 833 l 275 833 l 275 144 l 986 144 q 1072 151 1038 144 q 1126 174 1106 158 q 1154 215 1146 189 q 1163 281 1163 242 l 1163 689 z "},"e":{"ha":1163,"x_min":90,"x_max":1096,"o":"m 90 0 m 90 0 l 90 978 l 1096 978 l 1096 833 l 275 833 l 275 589 l 1054 589 l 1054 444 l 275 444 l 275 144 l 1096 144 l 1096 0 l 90 0 z "},"f":{"ha":1106,"x_min":90,"x_max":1096,"o":"m 90 0 m 275 403 l 275 0 l 90 0 l 90 978 l 1096 978 l 1096 833 l 275 833 l 275 547 l 1040 547 l 1040 403 l 275 403 z "},"g":{"ha":1293,"x_min":83,"x_max":1213,"o":"m 83 0 m 432 0 q 83 211 83 0 l 83 767 q 432 978 83 978 l 1197 978 l 1197 833 l 432 833 q 268 767 268 833 l 268 211 q 432 144 268 144 l 864 144 q 1028 208 1028 144 l 1028 533 l 1213 533 l 1213 208 q 864 0 1213 0 l 432 0 z "},"h":{"ha":1350,"x_min":90,"x_max":1260,"o":"m 90 0 m 1075 0 l 1075 444 l 275 444 l 275 0 l 90 0 l 90 978 l 275 978 l 275 589 l 1075 589 l 1075 978 l 1260 978 l 1260 0 l 1075 0 z "},"i":{"ha":379,"x_min":97,"x_max":282,"o":"m 97 0 m 97 0 l 97 978 l 282 978 l 282 0 l 97 0 z "},"j":{"ha":672,"x_min":13,"x_max":586,"o":"m 13 0 m 13 0 l 13 144 l 281 144 q 373 160 344 144 q 401 208 401 176 l 401 978 l 586 978 l 586 208 q 569 124 586 163 q 515 58 551 86 q 419 15 478 31 q 281 0 361 0 l 13 0 z "},"k":{"ha":1193,"x_min":90,"x_max":1176,"o":"m 90 0 m 963 0 l 593 436 l 275 436 l 275 0 l 90 0 l 90 978 l 275 978 l 275 581 l 589 581 l 957 978 l 1176 978 l 742 522 l 1175 0 l 963 0 z "},"l":{"ha":1108,"x_min":90,"x_max":1069,"o":"m 90 0 m 90 0 l 90 978 l 276 978 l 276 144 l 1069 144 l 1069 0 l 90 0 z "},"m":{"ha":1669,"x_min":90,"x_max":1579,"o":"m 90 0 m 1408 0 l 1408 685 l 911 0 l 760 0 l 261 683 l 261 0 l 90 0 l 90 978 l 263 978 l 843 179 l 1421 978 l 1579 978 l 1579 0 l 1408 0 z "},"n":{"ha":1475,"x_min":90,"x_max":1385,"o":"m 90 0 m 1294 0 l 251 761 l 251 0 l 90 0 l 90 978 l 250 978 l 1224 251 l 1224 978 l 1385 978 l 1385 0 l 1294 0 z "},"o":{"ha":1426,"x_min":83,"x_max":1343,"o":"m 83 0 m 390 0 q 249 17 307 0 q 153 66 190 35 q 100 140 117 97 q 83 236 83 183 l 83 742 q 100 838 83 794 q 153 912 117 881 q 249 960 190 943 q 390 978 307 978 l 1036 978 q 1178 960 1119 978 q 1273 912 1236 943 q 1326 838 1310 881 q 1343 742 1343 794 l 1343 236 q 1326 140 1343 183 q 1273 66 1310 97 q 1178 17 1236 35 q 1036 0 1119 0 l 390 0 m 1158 743 q 1036 833 1158 833 l 390 833 q 268 743 268 833 l 268 235 q 390 144 268 144 l 1036 144 q 1158 235 1158 144 l 1158 743 z "},"p":{"ha":1238,"x_min":90,"x_max":1199,"o":"m 90 0 m 275 361 l 275 0 l 90 0 l 90 978 l 892 978 q 1033 960 975 978 q 1128 912 1092 943 q 1182 838 1165 881 q 1199 742 1199 794 l 1199 597 q 1182 501 1199 544 q 1128 427 1165 458 q 1033 378 1092 396 q 892 361 975 361 l 275 361 m 1014 743 q 892 833 1014 833 l 275 833 l 275 506 l 892 506 q 1014 596 1014 506 l 1014 743 z "},"q":{"ha":1426,"x_min":83,"x_max":1343,"o":"m 83 0 m 1014 -217 l 896 0 l 390 0 q 249 17 307 0 q 153 66 190 35 q 100 140 117 97 q 83 236 83 183 l 83 742 q 100 838 83 794 q 153 912 117 881 q 249 960 190 943 q 390 978 307 978 l 1036 978 q 1178 960 1119 978 q 1273 912 1236 943 q 1326 838 1310 881 q 1343 742 1343 794 l 1343 236 q 1284 76 1343 139 q 1086 1 1225 13 l 1211 -217 l 1014 -217 m 1158 743 q 1036 833 1158 833 l 390 833 q 268 743 268 833 l 268 235 q 390 144 268 144 l 1036 144 q 1158 235 1158 144 l 1158 743 z "},"r":{"ha":1286,"x_min":90,"x_max":1228,"o":"m 90 0 m 1019 0 l 790 436 l 275 436 l 275 0 l 90 0 l 90 978 l 921 978 q 1063 960 1004 978 q 1158 912 1121 943 q 1211 838 1194 881 q 1228 742 1228 794 l 1228 672 q 1172 515 1228 578 q 986 439 1117 451 l 1217 0 l 1019 0 m 1043 743 q 921 833 1043 833 l 275 833 l 275 581 l 921 581 q 1043 671 1043 581 l 1043 743 z "},"s":{"ha":1321,"x_min":71,"x_max":1260,"o":"m 71 0 m 103 0 l 103 144 l 953 144 q 1075 235 1075 144 l 1075 358 q 953 449 1075 449 l 378 449 q 236 466 294 449 q 141 515 178 483 q 88 589 104 546 q 71 685 71 632 l 71 742 q 88 838 71 794 q 141 912 104 881 q 236 960 178 943 q 378 978 294 978 l 1206 978 l 1206 833 l 378 833 q 256 743 256 833 l 256 683 q 378 593 256 593 l 953 593 q 1094 576 1036 593 q 1190 527 1153 558 q 1243 453 1226 496 q 1260 357 1260 410 l 1260 236 q 1243 140 1260 183 q 1190 66 1226 97 q 1094 17 1153 35 q 953 0 1036 0 l 103 0 z "},"t":{"ha":1261,"x_min":32,"x_max":1228,"o":"m 32 0 m 544 0 l 544 833 l 32 833 l 32 978 l 1228 978 l 1228 833 l 729 833 l 729 0 l 544 0 z "},"u":{"ha":1393,"x_min":86,"x_max":1307,"o":"m 86 0 m 393 0 q 251 17 310 0 q 156 66 193 35 q 103 140 119 97 q 86 236 86 183 l 86 978 l 271 978 l 271 235 q 393 144 271 144 l 1000 144 q 1122 235 1122 144 l 1122 978 l 1307 978 l 1307 236 q 1297 140 1307 183 q 1256 66 1286 97 q 1174 17 1226 35 q 1039 0 1122 0 l 393 0 z "},"v":{"ha":1431,"x_min":0,"x_max":1431,"o":"m 0 0 m 650 0 l 0 978 l 210 978 l 721 190 l 1226 978 l 1431 978 l 785 0 l 650 0 z "},"w":{"ha":1860,"x_min":0,"x_max":1860,"o":"m 0 0 m 1269 0 l 931 750 l 585 0 l 450 0 l 0 978 l 178 978 l 518 228 l 861 978 l 999 978 l 1338 228 l 1681 978 l 1860 978 l 1408 0 l 1269 0 z "},"x":{"ha":1383,"x_min":17,"x_max":1367,"o":"m 17 0 m 1128 0 l 692 390 l 258 0 l 17 0 l 575 489 l 17 978 l 257 978 l 692 586 l 1126 978 l 1364 978 l 810 496 l 1367 0 l 1128 0 z "},"y":{"ha":1436,"x_min":0,"x_max":1436,"o":"m 0 0 m 628 0 l 628 397 l 0 978 l 236 978 l 719 531 l 1203 978 l 1436 978 l 813 397 l 813 0 l 628 0 z "},"z":{"ha":1432,"x_min":67,"x_max":1381,"o":"m 67 0 m 67 0 l 67 125 l 1056 819 l 67 819 l 67 978 l 1381 978 l 1381 853 l 388 158 l 1381 158 l 1381 0 l 67 0 z "},"{":{"ha":408,"x_min":36,"x_max":371,"o":"m 307 -153 q 139 3 139 -153 l 139 358 q 36 440 139 440 l 36 536 q 139 617 139 536 l 139 975 q 307 1131 139 1131 l 371 1131 l 371 1042 q 268 1003 268 1042 l 268 617 q 175 486 268 533 q 268 358 268 439 l 268 -25 q 371 -64 268 -64 l 371 -153 l 307 -153 z "},"|":{"ha":449,"x_min":160,"x_max":289,"o":"m 160 -153 l 160 1131 l 289 1131 l 289 -153 l 160 -153 z "},"}":{"ha":410,"x_min":44,"x_max":379,"o":"m 44 -153 l 44 -64 q 147 -25 147 -64 l 147 358 q 240 486 147 439 q 147 617 147 533 l 147 1003 q 44 1042 147 1042 l 44 1131 l 108 1131 q 276 975 276 1131 l 276 617 q 379 536 276 536 l 379 440 q 276 358 276 440 l 276 3 q 108 -153 276 -153 l 44 -153 z "},"~":{"ha":754,"x_min":56,"x_max":697,"o":"m 697 482 q 624 457 665 464 q 533 450 582 450 q 453 457 492 450 q 378 472 415 464 q 301 486 340 479 q 219 493 263 493 q 126 482 169 493 q 56 456 82 471 l 56 542 q 129 566 88 558 q 219 574 171 574 q 301 567 263 574 q 376 551 339 560 q 453 536 414 543 q 533 529 492 529 q 626 540 583 529 q 697 567 669 551 l 697 482 z "}," ":{"ha":694,"x_min":0,"x_max":0,"o":""},"¡":{"ha":381,"x_min":83,"x_max":297,"o":"m 83 0 m 271 978 l 271 797 l 108 797 l 108 978 l 271 978 m 254 700 l 296 0 l 83 0 l 125 700 l 254 700 z "},"¢":{"ha":764,"x_min":83,"x_max":693,"o":"m 510 121 l 510 0 l 364 0 l 364 121 l 317 121 q 208 134 253 121 q 136 172 164 147 q 96 229 108 196 q 83 304 83 263 l 83 661 q 96 735 83 701 q 136 794 108 769 q 208 831 164 818 q 317 844 253 844 l 364 844 l 364 978 l 510 978 l 510 844 l 693 844 l 693 710 l 317 710 q 247 663 247 710 l 247 303 q 317 254 247 254 l 693 254 l 693 121 l 510 121 z "},"£":{"ha":1015,"x_min":51,"x_max":961,"o":"m 51 0 l 51 144 l 161 144 l 161 444 l 58 444 l 58 589 l 161 589 l 161 743 q 244 922 161 865 q 472 978 326 978 l 933 978 l 933 833 l 472 833 q 382 814 418 833 q 346 743 346 794 l 346 589 l 644 589 l 644 444 l 346 444 l 346 144 l 961 144 l 961 0 l 51 0 z "},"¥":{"ha":1100,"x_min":44,"x_max":1054,"o":"m 646 154 l 646 0 l 457 0 l 457 154 l 128 154 l 128 283 l 457 283 l 457 382 l 128 382 l 128 511 l 386 511 l 44 978 l 232 978 l 551 543 l 869 978 l 1054 978 l 714 511 l 976 511 l 976 382 l 646 382 l 646 283 l 976 283 l 976 154 l 646 154 z "},"¦":{"ha":449,"x_min":160,"x_max":289,"o":"m 160 -153 l 160 429 l 289 429 l 289 -153 l 160 -153 m 289 558 l 160 558 l 160 1131 l 289 1131 l 289 558 z "},"§":{"ha":803,"x_min":50,"x_max":769,"o":"m 125 0 l 125 135 l 276 135 q 349 182 349 135 l 349 272 l 283 272 q 175 285 219 272 q 103 323 131 299 q 63 381 75 347 q 50 456 50 415 l 50 522 q 63 597 50 563 q 103 655 75 631 q 176 692 132 679 q 285 706 221 706 l 308 706 l 308 794 q 321 869 308 835 q 362 927 333 903 q 435 965 390 951 q 543 978 479 978 l 694 978 l 694 843 l 543 843 q 471 796 471 843 l 471 706 l 536 706 q 644 692 600 706 q 717 655 689 679 q 757 597 744 631 q 769 522 769 563 l 769 456 q 716 323 769 374 q 535 272 663 272 l 511 272 l 511 183 q 458 51 511 101 q 276 0 404 0 l 125 0 m 607 524 q 538 571 607 571 l 286 571 q 214 524 214 571 l 214 454 q 283 407 214 407 l 535 407 q 607 454 607 407 l 607 524 z "},"¨":{"ha":707,"x_min":69,"x_max":638,"o":"m 69 1094 l 69 1275 l 260 1275 l 260 1094 l 69 1094 m 447 1094 l 447 1275 l 638 1275 l 638 1094 l 447 1094 z "},"©":{"ha":1140,"x_min":83,"x_max":1042,"o":"m 922 706 q 757 858 922 858 l 351 858 q 197 706 197 858 l 197 286 q 351 128 197 128 l 757 128 q 922 286 922 128 l 922 706 m 351 1 q 83 286 83 1 l 83 706 q 351 976 83 976 l 757 976 q 1042 706 1042 976 l 1042 286 q 757 1 1042 1 l 351 1 m 503 235 q 349 277 394 235 q 304 388 304 319 l 304 606 q 349 716 304 674 q 503 758 394 758 l 792 758 l 792 664 l 503 664 q 424 606 424 664 l 424 388 q 503 329 424 329 l 792 329 l 792 235 l 503 235 z "},"ª":{"ha":869,"x_min":42,"x_max":828,"o":"m 714 417 l 436 850 l 154 417 l 42 417 l 399 954 l 474 954 l 828 417 l 714 417 z "},"«":{"ha":836,"x_min":72,"x_max":764,"o":"m 433 460 l 433 551 l 764 742 l 764 622 l 554 504 l 764 385 l 764 267 l 433 460 m 72 460 l 72 551 l 403 742 l 403 622 l 193 504 l 403 385 l 403 267 l 72 460 z "},"®":{"ha":915,"x_min":83,"x_max":840,"o":"m 746 763 q 615 883 746 883 l 294 883 q 174 763 174 883 l 174 432 q 294 307 174 307 l 615 307 q 746 432 746 307 l 746 763 m 294 207 q 83 432 83 207 l 83 763 q 294 976 83 976 l 615 976 q 840 763 840 976 l 840 432 q 615 207 840 207 l 294 207 m 557 411 l 479 576 l 374 576 l 374 411 l 288 411 l 288 789 l 535 789 q 647 693 647 789 l 647 669 q 625 608 647 631 q 572 581 603 586 l 650 411 l 557 411 m 560 693 q 535 713 560 713 l 374 713 l 374 646 l 535 646 q 560 664 560 646 l 560 693 z "},"¯":{"ha":594,"x_min":69,"x_max":525,"o":"m 69 1097 l 69 1213 l 525 1213 l 525 1097 l 69 1097 z "},"°":{"ha":451,"x_min":83,"x_max":404,"o":"m 319 829 q 243 907 319 907 q 168 832 168 907 q 243 756 168 756 q 319 829 319 756 m 243 671 q 83 832 83 671 q 243 992 83 992 q 404 832 404 992 q 243 671 404 671 z "},"±":{"ha":754,"x_min":56,"x_max":697,"o":"m 56 1 m 325 183 l 325 453 l 56 453 l 56 556 l 325 556 l 325 825 l 428 825 l 428 556 l 697 556 l 697 453 l 428 453 l 428 183 l 325 183 m 56 1 l 56 104 l 697 104 l 697 1 l 56 1 z "},"²":{"ha":624,"x_min":57,"x_max":563,"o":"m 57 503 m 57 503 l 57 681 q 92 766 57 733 q 211 799 128 799 l 410 799 q 471 844 471 799 l 471 874 q 410 919 471 919 l 83 919 l 83 992 l 410 992 q 528 959 493 992 q 563 874 563 926 l 563 844 q 528 759 563 792 q 410 726 493 726 l 211 726 q 150 682 150 726 l 150 575 l 563 575 l 563 503 l 57 503 z "},"³":{"ha":603,"x_min":58,"x_max":540,"o":"m 58 503 m 58 503 l 58 575 l 386 575 q 431 585 414 575 q 449 625 449 596 l 449 686 q 431 719 449 710 q 386 728 414 728 l 79 728 l 79 800 l 385 800 q 429 809 417 800 q 442 839 442 818 l 442 881 q 429 910 442 901 q 385 919 417 919 l 58 919 l 58 992 l 385 992 q 501 963 467 992 q 535 886 535 935 l 535 849 q 519 795 535 817 q 476 768 503 774 q 522 742 504 761 q 540 688 540 724 l 540 608 q 533 568 540 588 q 508 534 526 549 q 461 511 490 519 q 386 503 432 503 l 58 503 z "},"´":{"ha":593,"x_min":69,"x_max":524,"o":"m 69 1049 l 69 1164 l 524 1260 l 524 1103 l 69 1049 z "},"¶":{"ha":985,"x_min":22,"x_max":893,"o":"m 708 -153 l 708 722 l 556 722 l 556 -153 l 369 -153 l 369 833 q 207 722 207 831 l 22 722 q 371 978 22 978 l 893 978 l 893 -153 l 708 -153 z "},"·":{"ha":396,"x_min":83,"x_max":301,"o":"m 83 417 l 83 597 l 301 597 l 301 417 l 83 417 z "},"¸":{"ha":329,"x_min":69,"x_max":260,"o":"m 69 -333 l 69 -51 l 260 -51 l 260 -135 l 143 -333 l 69 -333 z "},"¹":{"ha":314,"x_min":24,"x_max":247,"o":"m 24 503 m 156 503 l 156 922 l 121 883 l 24 883 l 119 992 l 247 992 l 247 503 l 156 503 z "},"º":{"ha":868,"x_min":88,"x_max":781,"o":"m 257 417 q 126 453 165 417 q 88 547 88 489 l 88 825 q 126 919 88 883 q 257 954 165 954 l 611 954 q 742 919 703 954 q 781 825 781 883 l 781 547 q 742 453 781 489 q 611 417 703 417 l 257 417 m 679 825 q 611 875 679 875 l 257 875 q 189 825 189 875 l 189 546 q 257 496 189 496 l 611 496 q 679 546 679 496 l 679 825 z "},"»":{"ha":836,"x_min":72,"x_max":764,"o":"m 433 267 l 433 385 l 643 504 l 433 622 l 433 742 l 764 551 l 764 460 l 433 267 m 72 267 l 72 385 l 282 504 l 72 622 l 72 742 l 403 551 l 403 460 l 72 267 z "},"¼":{"ha":1413,"x_min":83,"x_max":1329,"o":"m 83 0 m 360 503 l 360 922 l 325 883 l 228 883 l 324 992 l 451 992 l 451 503 l 360 503 m 83 -42 l 1088 1033 l 1203 1033 l 197 -42 l 83 -42 m 1185 -14 l 1185 69 l 744 69 l 744 128 l 1003 475 l 1103 475 l 854 142 l 1185 142 l 1185 475 l 1278 475 l 1278 142 l 1329 142 l 1329 69 l 1278 69 l 1278 -14 l 1185 -14 z "},"½":{"ha":1414,"x_min":83,"x_max":1331,"o":"m 83 0 m 360 503 l 360 922 l 325 883 l 228 883 l 324 992 l 451 992 l 451 503 l 360 503 m 83 -42 l 1088 1033 l 1203 1033 l 197 -42 l 83 -42 m 825 -14 l 825 164 q 860 249 825 217 q 979 282 896 282 l 1178 282 q 1239 328 1239 282 l 1239 357 q 1178 403 1239 403 l 851 403 l 851 475 l 1178 475 q 1296 442 1261 475 q 1331 357 1331 410 l 1331 328 q 1296 242 1331 275 q 1178 210 1261 210 l 979 210 q 918 165 918 210 l 918 58 l 1331 58 l 1331 -14 l 825 -14 z "},"¾":{"ha":1397,"x_min":83,"x_max":1314,"o":"m 83 0 m 83 503 l 83 575 l 411 575 q 456 585 439 575 q 474 625 474 596 l 474 686 q 456 719 474 710 q 411 728 439 728 l 104 728 l 104 800 l 410 800 q 454 809 442 800 q 467 839 467 818 l 467 881 q 454 910 467 901 q 410 919 442 919 l 83 919 l 83 992 l 410 992 q 526 963 492 992 q 560 886 560 935 l 560 849 q 544 795 560 817 q 501 768 528 774 q 547 742 529 761 q 565 688 565 724 l 565 608 q 558 568 565 588 q 533 534 551 549 q 486 511 515 519 q 411 503 457 503 l 83 503 m 138 -42 l 1142 1033 l 1257 1033 l 251 -42 l 138 -42 m 1169 -14 l 1169 69 l 729 69 l 729 128 l 988 475 l 1088 475 l 839 142 l 1169 142 l 1169 475 l 1263 475 l 1263 142 l 1314 142 l 1314 69 l 1263 69 l 1263 -14 l 1169 -14 z "},"¿":{"ha":935,"x_min":19,"x_max":872,"o":"m 19 0 m 20 293 q 36 389 20 346 q 90 463 53 432 q 185 512 126 494 q 326 529 243 529 l 478 529 q 600 619 600 529 l 600 706 l 757 706 l 757 621 q 740 525 757 568 q 686 451 724 482 q 590 402 649 419 q 449 385 532 385 l 326 385 q 204 294 204 385 l 204 235 q 326 144 204 144 l 871 144 l 871 0 l 326 0 q 185 17 243 0 q 90 66 126 35 q 36 140 53 97 q 20 236 20 183 l 20 293 m 757 978 l 757 797 l 600 797 l 600 978 l 757 978 z "},"À":{"ha":1431,"x_min":0,"x_max":1431,"o":"m 0 0 m 1222 0 l 718 788 l 206 0 l 0 0 l 650 978 l 785 978 l 1431 0 l 1222 0 m 446 1103 l 446 1260 l 901 1164 l 901 1049 l 446 1103 z "},"Á":{"ha":1431,"x_min":0,"x_max":1431,"o":"m 0 0 m 1222 0 l 718 788 l 206 0 l 0 0 l 650 978 l 785 978 l 1431 0 l 1222 0 m 529 1049 l 529 1164 l 983 1260 l 983 1103 l 529 1049 z "},"Â":{"ha":1431,"x_min":0,"x_max":1431,"o":"m 0 0 m 1222 0 l 718 788 l 206 0 l 0 0 l 650 978 l 785 978 l 1431 0 l 1222 0 m 807 1049 l 721 1189 l 707 1189 l 624 1049 l 471 1049 l 615 1260 l 815 1260 l 958 1049 l 807 1049 z "},"Ã":{"ha":1431,"x_min":0,"x_max":1431,"o":"m 0 0 m 1222 0 l 718 788 l 206 0 l 0 0 l 650 978 l 785 978 l 1431 0 l 1222 0 m 943 1114 q 891 1081 921 1090 q 826 1072 861 1072 q 770 1081 797 1072 q 716 1101 743 1090 q 662 1120 689 1111 q 604 1129 635 1129 q 538 1115 568 1129 q 488 1079 507 1100 l 488 1194 q 540 1226 510 1217 q 604 1236 569 1236 q 662 1227 635 1236 q 716 1207 689 1218 q 770 1187 743 1196 q 826 1178 797 1178 q 893 1192 863 1178 q 943 1228 924 1207 l 943 1114 z "},"Ä":{"ha":1431,"x_min":0,"x_max":1431,"o":"m 0 0 m 1222 0 l 718 788 l 206 0 l 0 0 l 650 978 l 785 978 l 1431 0 l 1222 0 m 431 1094 l 431 1275 l 621 1275 l 621 1094 l 431 1094 m 808 1094 l 808 1275 l 999 1275 l 999 1094 l 808 1094 z "},"Å":{"ha":1431,"x_min":0,"x_max":1431,"o":"m 0 0 m 1222 0 l 718 788 l 206 0 l 0 0 l 650 978 l 785 978 l 1431 0 l 1222 0 m 831 1206 q 786 1250 831 1250 l 642 1250 q 599 1206 599 1250 l 599 1171 q 642 1126 599 1126 l 786 1126 q 831 1171 831 1126 l 831 1206 m 936 1169 q 776 1049 936 1049 l 651 1049 q 494 1169 494 1049 l 494 1207 q 651 1329 494 1329 l 776 1329 q 936 1207 936 1329 l 936 1169 z "},"Æ":{"ha":2075,"x_min":0,"x_max":2008,"o":"m 1003 0 l 1003 715 l 243 0 l 0 0 l 1032 978 l 2008 978 l 2008 833 l 1188 833 l 1188 589 l 1967 589 l 1967 444 l 1188 444 l 1188 144 l 2008 144 l 2008 0 l 1003 0 z "},"Ç":{"ha":1243,"x_min":83,"x_max":1178,"o":"m 83 0 m 390 0 q 249 17 307 0 q 153 66 190 35 q 100 140 117 97 q 83 236 83 183 l 83 742 q 100 838 83 794 q 153 912 117 881 q 249 960 190 943 q 390 978 307 978 l 1178 978 l 1178 833 l 390 833 q 268 743 268 833 l 268 235 q 390 144 268 144 l 1178 144 l 1178 0 l 390 0 m 554 -333 l 554 -51 l 744 -51 l 744 -135 l 628 -333 l 554 -333 z "},"È":{"ha":1163,"x_min":90,"x_max":1096,"o":"m 90 0 m 90 0 l 90 978 l 1096 978 l 1096 833 l 275 833 l 275 589 l 1054 589 l 1054 444 l 275 444 l 275 144 l 1096 144 l 1096 0 l 90 0 m 311 1103 l 311 1260 l 767 1164 l 767 1049 l 311 1103 z "},"É":{"ha":1163,"x_min":90,"x_max":1096,"o":"m 90 0 m 90 0 l 90 978 l 1096 978 l 1096 833 l 275 833 l 275 589 l 1054 589 l 1054 444 l 275 444 l 275 144 l 1096 144 l 1096 0 l 90 0 m 396 1049 l 396 1164 l 850 1260 l 850 1103 l 396 1049 z "},"Ê":{"ha":1163,"x_min":90,"x_max":1096,"o":"m 90 0 m 90 0 l 90 978 l 1096 978 l 1096 833 l 275 833 l 275 589 l 1054 589 l 1054 444 l 275 444 l 275 144 l 1096 144 l 1096 0 l 90 0 m 688 1049 l 601 1189 l 588 1189 l 504 1049 l 351 1049 l 496 1260 l 696 1260 l 839 1049 l 688 1049 z "},"Ë":{"ha":1163,"x_min":90,"x_max":1096,"o":"m 90 0 m 90 0 l 90 978 l 1096 978 l 1096 833 l 275 833 l 275 589 l 1054 589 l 1054 444 l 275 444 l 275 144 l 1096 144 l 1096 0 l 90 0 m 311 1094 l 311 1275 l 501 1275 l 501 1094 l 311 1094 m 689 1094 l 689 1275 l 879 1275 l 879 1094 l 689 1094 z "},"Ì":{"ha":379,"x_min":-78,"x_max":378,"o":"m 0 0 m 97 0 l 97 978 l 282 978 l 282 0 l 97 0 m -78 1103 l -78 1260 l 378 1164 l 378 1049 l -78 1103 z "},"Í":{"ha":379,"x_min":6,"x_max":460,"o":"m 6 0 m 97 0 l 97 978 l 282 978 l 282 0 l 97 0 m 6 1049 l 6 1164 l 460 1260 l 460 1103 l 6 1049 z "},"Î":{"ha":379,"x_min":-53,"x_max":435,"o":"m 0 0 m 97 0 l 97 978 l 282 978 l 282 0 l 97 0 m 283 1049 l 197 1189 l 183 1189 l 100 1049 l -53 1049 l 92 1260 l 292 1260 l 435 1049 l 283 1049 z "},"Ï":{"ha":379,"x_min":-93,"x_max":475,"o":"m 0 0 m 97 0 l 97 978 l 282 978 l 282 0 l 97 0 m -93 1094 l -93 1275 l 97 1275 l 97 1094 l -93 1094 m 285 1094 l 285 1275 l 475 1275 l 475 1094 l 285 1094 z "},"Ð":{"ha":1431,"x_min":0,"x_max":1347,"o":"m 90 0 l 90 444 l 0 444 l 0 589 l 90 589 l 90 978 l 986 978 q 1160 960 1090 978 q 1271 906 1229 942 q 1330 815 1313 869 q 1347 689 1347 761 l 1347 279 q 1330 158 1347 210 q 1271 71 1313 106 q 1160 18 1229 36 q 986 0 1090 0 l 90 0 m 1163 689 q 1154 758 1163 731 q 1126 803 1146 786 q 1072 826 1106 819 q 986 833 1038 833 l 275 833 l 275 589 l 721 589 l 721 444 l 275 444 l 275 144 l 986 144 q 1072 151 1038 144 q 1126 174 1106 158 q 1154 215 1146 189 q 1163 281 1163 242 l 1163 689 z "},"Ñ":{"ha":1475,"x_min":90,"x_max":1385,"o":"m 90 0 m 1294 0 l 251 761 l 251 0 l 90 0 l 90 978 l 250 978 l 1224 251 l 1224 978 l 1385 978 l 1385 0 l 1294 0 m 979 1114 q 927 1081 957 1090 q 863 1072 897 1072 q 806 1081 833 1072 q 752 1101 779 1090 q 698 1120 725 1111 q 640 1129 671 1129 q 574 1115 604 1129 q 524 1079 543 1100 l 524 1194 q 576 1226 546 1217 q 640 1236 606 1236 q 698 1227 671 1236 q 752 1207 725 1218 q 806 1187 779 1196 q 863 1178 833 1178 q 929 1192 899 1178 q 979 1228 960 1207 l 979 1114 z "},"Ò":{"ha":1426,"x_min":83,"x_max":1343,"o":"m 83 0 m 390 0 q 249 17 307 0 q 153 66 190 35 q 100 140 117 97 q 83 236 83 183 l 83 742 q 100 838 83 794 q 153 912 117 881 q 249 960 190 943 q 390 978 307 978 l 1036 978 q 1178 960 1119 978 q 1273 912 1236 943 q 1326 838 1310 881 q 1343 742 1343 794 l 1343 236 q 1326 140 1343 183 q 1273 66 1310 97 q 1178 17 1236 35 q 1036 0 1119 0 l 390 0 m 1158 743 q 1036 833 1158 833 l 390 833 q 268 743 268 833 l 268 235 q 390 144 268 144 l 1036 144 q 1158 235 1158 144 l 1158 743 m 443 1103 l 443 1260 l 899 1164 l 899 1049 l 443 1103 z "},"Ó":{"ha":1426,"x_min":83,"x_max":1343,"o":"m 83 0 m 390 0 q 249 17 307 0 q 153 66 190 35 q 100 140 117 97 q 83 236 83 183 l 83 742 q 100 838 83 794 q 153 912 117 881 q 249 960 190 943 q 390 978 307 978 l 1036 978 q 1178 960 1119 978 q 1273 912 1236 943 q 1326 838 1310 881 q 1343 742 1343 794 l 1343 236 q 1326 140 1343 183 q 1273 66 1310 97 q 1178 17 1236 35 q 1036 0 1119 0 l 390 0 m 1158 743 q 1036 833 1158 833 l 390 833 q 268 743 268 833 l 268 235 q 390 144 268 144 l 1036 144 q 1158 235 1158 144 l 1158 743 m 528 1049 l 528 1164 l 982 1260 l 982 1103 l 528 1049 z "},"Ô":{"ha":1426,"x_min":83,"x_max":1343,"o":"m 83 0 m 390 0 q 249 17 307 0 q 153 66 190 35 q 100 140 117 97 q 83 236 83 183 l 83 742 q 100 838 83 794 q 153 912 117 881 q 249 960 190 943 q 390 978 307 978 l 1036 978 q 1178 960 1119 978 q 1273 912 1236 943 q 1326 838 1310 881 q 1343 742 1343 794 l 1343 236 q 1326 140 1343 183 q 1273 66 1310 97 q 1178 17 1236 35 q 1036 0 1119 0 l 390 0 m 1158 743 q 1036 833 1158 833 l 390 833 q 268 743 268 833 l 268 235 q 390 144 268 144 l 1036 144 q 1158 235 1158 144 l 1158 743 m 806 1049 l 719 1189 l 706 1189 l 622 1049 l 469 1049 l 614 1260 l 814 1260 l 957 1049 l 806 1049 z "},"Õ":{"ha":1426,"x_min":83,"x_max":1343,"o":"m 83 0 m 390 0 q 249 17 307 0 q 153 66 190 35 q 100 140 117 97 q 83 236 83 183 l 83 742 q 100 838 83 794 q 153 912 117 881 q 249 960 190 943 q 390 978 307 978 l 1036 978 q 1178 960 1119 978 q 1273 912 1236 943 q 1326 838 1310 881 q 1343 742 1343 794 l 1343 236 q 1326 140 1343 183 q 1273 66 1310 97 q 1178 17 1236 35 q 1036 0 1119 0 l 390 0 m 1158 743 q 1036 833 1158 833 l 390 833 q 268 743 268 833 l 268 235 q 390 144 268 144 l 1036 144 q 1158 235 1158 144 l 1158 743 m 940 1114 q 888 1081 918 1090 q 824 1072 858 1072 q 767 1081 794 1072 q 713 1101 740 1090 q 659 1120 686 1111 q 601 1129 632 1129 q 535 1115 565 1129 q 485 1079 504 1100 l 485 1194 q 537 1226 507 1217 q 601 1236 567 1236 q 659 1227 632 1236 q 713 1207 686 1218 q 767 1187 740 1196 q 824 1178 794 1178 q 890 1192 860 1178 q 940 1228 921 1207 l 940 1114 z "},"Ö":{"ha":1426,"x_min":83,"x_max":1343,"o":"m 83 0 m 390 0 q 249 17 307 0 q 153 66 190 35 q 100 140 117 97 q 83 236 83 183 l 83 742 q 100 838 83 794 q 153 912 117 881 q 249 960 190 943 q 390 978 307 978 l 1036 978 q 1178 960 1119 978 q 1273 912 1236 943 q 1326 838 1310 881 q 1343 742 1343 794 l 1343 236 q 1326 140 1343 183 q 1273 66 1310 97 q 1178 17 1236 35 q 1036 0 1119 0 l 390 0 m 1158 743 q 1036 833 1158 833 l 390 833 q 268 743 268 833 l 268 235 q 390 144 268 144 l 1036 144 q 1158 235 1158 144 l 1158 743 m 429 1094 l 429 1275 l 619 1275 l 619 1094 l 429 1094 m 807 1094 l 807 1275 l 997 1275 l 997 1094 l 807 1094 z "},"×":{"ha":754,"x_min":113,"x_max":640,"o":"m 567 240 l 376 432 l 186 240 l 113 314 l 304 504 l 113 694 l 186 768 l 376 576 l 567 768 l 640 694 l 449 504 l 640 314 l 567 240 z "},"Ø":{"ha":1426,"x_min":83,"x_max":1343,"o":"m 390 0 q 311 4 349 0 l 218 -96 l 153 -42 l 217 28 q 115 110 146 56 q 83 236 83 164 l 83 742 q 100 838 83 794 q 153 912 117 881 q 249 960 190 943 q 390 978 307 978 l 1036 978 q 1070 977 1054 978 q 1101 975 1086 976 l 1210 1090 l 1272 1033 l 1197 954 q 1309 872 1275 926 q 1343 742 1343 817 l 1343 236 q 1326 140 1343 183 q 1273 66 1310 97 q 1178 17 1236 35 q 1036 0 1119 0 l 390 0 m 1158 743 q 1082 829 1158 815 l 443 144 l 1036 144 q 1158 235 1158 144 l 1158 743 m 969 833 l 390 833 q 268 743 268 833 l 268 235 q 332 151 268 169 l 969 833 z "},"Ù":{"ha":1393,"x_min":86,"x_max":1307,"o":"m 86 0 m 393 0 q 251 17 310 0 q 156 66 193 35 q 103 140 119 97 q 86 236 86 183 l 86 978 l 271 978 l 271 235 q 393 144 271 144 l 1000 144 q 1122 235 1122 144 l 1122 978 l 1307 978 l 1307 236 q 1297 140 1307 183 q 1256 66 1286 97 q 1174 17 1226 35 q 1039 0 1122 0 l 393 0 m 426 1103 l 426 1260 l 882 1164 l 882 1049 l 426 1103 z "},"Ú":{"ha":1393,"x_min":86,"x_max":1307,"o":"m 86 0 m 393 0 q 251 17 310 0 q 156 66 193 35 q 103 140 119 97 q 86 236 86 183 l 86 978 l 271 978 l 271 235 q 393 144 271 144 l 1000 144 q 1122 235 1122 144 l 1122 978 l 1307 978 l 1307 236 q 1297 140 1307 183 q 1256 66 1286 97 q 1174 17 1226 35 q 1039 0 1122 0 l 393 0 m 511 1049 l 511 1164 l 965 1260 l 965 1103 l 511 1049 z "},"Û":{"ha":1393,"x_min":86,"x_max":1307,"o":"m 86 0 m 393 0 q 251 17 310 0 q 156 66 193 35 q 103 140 119 97 q 86 236 86 183 l 86 978 l 271 978 l 271 235 q 393 144 271 144 l 1000 144 q 1122 235 1122 144 l 1122 978 l 1307 978 l 1307 236 q 1297 140 1307 183 q 1256 66 1286 97 q 1174 17 1226 35 q 1039 0 1122 0 l 393 0 m 789 1049 l 703 1189 l 689 1189 l 606 1049 l 453 1049 l 597 1260 l 797 1260 l 940 1049 l 789 1049 z "},"Ü":{"ha":1393,"x_min":86,"x_max":1307,"o":"m 86 0 m 393 0 q 251 17 310 0 q 156 66 193 35 q 103 140 119 97 q 86 236 86 183 l 86 978 l 271 978 l 271 235 q 393 144 271 144 l 1000 144 q 1122 235 1122 144 l 1122 978 l 1307 978 l 1307 236 q 1297 140 1307 183 q 1256 66 1286 97 q 1174 17 1226 35 q 1039 0 1122 0 l 393 0 m 413 1094 l 413 1275 l 603 1275 l 603 1094 l 413 1094 m 790 1094 l 790 1275 l 981 1275 l 981 1094 l 790 1094 z "},"Ý":{"ha":1436,"x_min":0,"x_max":1436,"o":"m 0 0 m 628 0 l 628 397 l 0 978 l 236 978 l 719 531 l 1203 978 l 1436 978 l 813 397 l 813 0 l 628 0 m 533 1049 l 533 1164 l 988 1260 l 988 1103 l 533 1049 z "},"Þ":{"ha":1161,"x_min":90,"x_max":1110,"o":"m 275 139 l 275 0 l 90 0 l 90 978 l 275 978 l 275 838 l 803 838 q 944 820 886 838 q 1040 772 1003 803 q 1093 697 1076 740 q 1110 601 1110 654 l 1110 375 q 1093 279 1110 322 q 1040 205 1076 236 q 944 156 1003 174 q 803 139 886 139 l 275 139 m 925 603 q 803 693 925 693 l 275 693 l 275 283 l 803 283 q 925 374 925 283 l 925 603 z "},"ß":{"ha":2642,"x_min":71,"x_max":2581,"o":"m 71 0 m 103 0 l 103 144 l 953 144 q 1075 235 1075 144 l 1075 358 q 953 449 1075 449 l 378 449 q 236 466 294 449 q 141 515 178 483 q 88 589 104 546 q 71 685 71 632 l 71 742 q 88 838 71 794 q 141 912 104 881 q 236 960 178 943 q 378 978 294 978 l 1206 978 l 1206 833 l 378 833 q 256 743 256 833 l 256 683 q 378 593 256 593 l 953 593 q 1094 576 1036 593 q 1190 527 1153 558 q 1243 453 1226 496 q 1260 357 1260 410 l 1260 236 q 1243 140 1260 183 q 1190 66 1226 97 q 1094 17 1153 35 q 953 0 1036 0 l 103 0 m 1424 0 l 1424 144 l 2274 144 q 2396 235 2396 144 l 2396 358 q 2274 449 2396 449 l 1699 449 q 1557 466 1615 449 q 1462 515 1499 483 q 1408 589 1425 546 q 1392 685 1392 632 l 1392 742 q 1408 838 1392 794 q 1462 912 1425 881 q 1557 960 1499 943 q 1699 978 1615 978 l 2526 978 l 2526 833 l 1699 833 q 1576 743 1576 833 l 1576 683 q 1699 593 1576 593 l 2274 593 q 2415 576 2357 593 q 2510 527 2474 558 q 2564 453 2547 496 q 2581 357 2581 410 l 2581 236 q 2564 140 2581 183 q 2510 66 2547 97 q 2415 17 2474 35 q 2274 0 2357 0 l 1424 0 z "},"à":{"ha":1431,"x_min":0,"x_max":1431,"o":"m 0 0 m 1222 0 l 718 788 l 206 0 l 0 0 l 650 978 l 785 978 l 1431 0 l 1222 0 m 446 1103 l 446 1260 l 901 1164 l 901 1049 l 446 1103 z "},"á":{"ha":1431,"x_min":0,"x_max":1431,"o":"m 0 0 m 1222 0 l 718 788 l 206 0 l 0 0 l 650 978 l 785 978 l 1431 0 l 1222 0 m 529 1049 l 529 1164 l 983 1260 l 983 1103 l 529 1049 z "},"â":{"ha":1431,"x_min":0,"x_max":1431,"o":"m 0 0 m 1222 0 l 718 788 l 206 0 l 0 0 l 650 978 l 785 978 l 1431 0 l 1222 0 m 807 1049 l 721 1189 l 707 1189 l 624 1049 l 471 1049 l 615 1260 l 815 1260 l 958 1049 l 807 1049 z "},"ã":{"ha":1431,"x_min":0,"x_max":1431,"o":"m 0 0 m 1222 0 l 718 788 l 206 0 l 0 0 l 650 978 l 785 978 l 1431 0 l 1222 0 m 943 1114 q 891 1081 921 1090 q 826 1072 861 1072 q 770 1081 797 1072 q 716 1101 743 1090 q 662 1120 689 1111 q 604 1129 635 1129 q 538 1115 568 1129 q 488 1079 507 1100 l 488 1194 q 540 1226 510 1217 q 604 1236 569 1236 q 662 1227 635 1236 q 716 1207 689 1218 q 770 1187 743 1196 q 826 1178 797 1178 q 893 1192 863 1178 q 943 1228 924 1207 l 943 1114 z "},"ä":{"ha":1431,"x_min":0,"x_max":1431,"o":"m 0 0 m 1222 0 l 718 788 l 206 0 l 0 0 l 650 978 l 785 978 l 1431 0 l 1222 0 m 431 1094 l 431 1275 l 621 1275 l 621 1094 l 431 1094 m 808 1094 l 808 1275 l 999 1275 l 999 1094 l 808 1094 z "},"å":{"ha":1431,"x_min":0,"x_max":1431,"o":"m 0 0 m 1222 0 l 718 788 l 206 0 l 0 0 l 650 978 l 785 978 l 1431 0 l 1222 0 m 831 1206 q 786 1250 831 1250 l 642 1250 q 599 1206 599 1250 l 599 1171 q 642 1126 599 1126 l 786 1126 q 831 1171 831 1126 l 831 1206 m 936 1169 q 776 1049 936 1049 l 651 1049 q 494 1169 494 1049 l 494 1207 q 651 1329 494 1329 l 776 1329 q 936 1207 936 1329 l 936 1169 z "},"æ":{"ha":2075,"x_min":0,"x_max":2008,"o":"m 0 0 m 1003 0 l 1003 715 l 243 0 l 0 0 l 1032 978 l 2008 978 l 2008 833 l 1188 833 l 1188 589 l 1967 589 l 1967 444 l 1188 444 l 1188 144 l 2008 144 l 2008 0 l 1003 0 z "},"ç":{"ha":1243,"x_min":83,"x_max":1178,"o":"m 83 0 m 390 0 q 249 17 307 0 q 153 66 190 35 q 100 140 117 97 q 83 236 83 183 l 83 742 q 100 838 83 794 q 153 912 117 881 q 249 960 190 943 q 390 978 307 978 l 1178 978 l 1178 833 l 390 833 q 268 743 268 833 l 268 235 q 390 144 268 144 l 1178 144 l 1178 0 l 390 0 m 554 -333 l 554 -51 l 744 -51 l 744 -135 l 628 -333 l 554 -333 z "},"è":{"ha":1163,"x_min":90,"x_max":1096,"o":"m 90 0 m 90 0 l 90 978 l 1096 978 l 1096 833 l 275 833 l 275 589 l 1054 589 l 1054 444 l 275 444 l 275 144 l 1096 144 l 1096 0 l 90 0 m 311 1103 l 311 1260 l 767 1164 l 767 1049 l 311 1103 z "},"é":{"ha":1163,"x_min":90,"x_max":1096,"o":"m 90 0 m 90 0 l 90 978 l 1096 978 l 1096 833 l 275 833 l 275 589 l 1054 589 l 1054 444 l 275 444 l 275 144 l 1096 144 l 1096 0 l 90 0 m 396 1049 l 396 1164 l 850 1260 l 850 1103 l 396 1049 z "},"ê":{"ha":1163,"x_min":90,"x_max":1096,"o":"m 90 0 m 90 0 l 90 978 l 1096 978 l 1096 833 l 275 833 l 275 589 l 1054 589 l 1054 444 l 275 444 l 275 144 l 1096 144 l 1096 0 l 90 0 m 688 1049 l 601 1189 l 588 1189 l 504 1049 l 351 1049 l 496 1260 l 696 1260 l 839 1049 l 688 1049 z "},"ë":{"ha":1163,"x_min":90,"x_max":1096,"o":"m 90 0 m 90 0 l 90 978 l 1096 978 l 1096 833 l 275 833 l 275 589 l 1054 589 l 1054 444 l 275 444 l 275 144 l 1096 144 l 1096 0 l 90 0 m 311 1094 l 311 1275 l 501 1275 l 501 1094 l 311 1094 m 689 1094 l 689 1275 l 879 1275 l 879 1094 l 689 1094 z "},"ì":{"ha":379,"x_min":-78,"x_max":378,"o":"m 0 0 m 97 0 l 97 978 l 282 978 l 282 0 l 97 0 m -78 1103 l -78 1260 l 378 1164 l 378 1049 l -78 1103 z "},"í":{"ha":379,"x_min":6,"x_max":460,"o":"m 6 0 m 97 0 l 97 978 l 282 978 l 282 0 l 97 0 m 6 1049 l 6 1164 l 460 1260 l 460 1103 l 6 1049 z "},"î":{"ha":379,"x_min":-53,"x_max":435,"o":"m 0 0 m 97 0 l 97 978 l 282 978 l 282 0 l 97 0 m 283 1049 l 197 1189 l 183 1189 l 100 1049 l -53 1049 l 92 1260 l 292 1260 l 435 1049 l 283 1049 z "},"ï":{"ha":379,"x_min":-93,"x_max":475,"o":"m 0 0 m 97 0 l 97 978 l 282 978 l 282 0 l 97 0 m -93 1094 l -93 1275 l 97 1275 l 97 1094 l -93 1094 m 285 1094 l 285 1275 l 475 1275 l 475 1094 l 285 1094 z "},"ð":{"ha":1431,"x_min":0,"x_max":1347,"o":"m 0 0 m 90 0 l 90 444 l 0 444 l 0 589 l 90 589 l 90 978 l 986 978 q 1160 960 1090 978 q 1271 906 1229 942 q 1330 815 1313 869 q 1347 689 1347 761 l 1347 279 q 1330 158 1347 210 q 1271 71 1313 106 q 1160 18 1229 36 q 986 0 1090 0 l 90 0 m 1163 689 q 1154 758 1163 731 q 1126 803 1146 786 q 1072 826 1106 819 q 986 833 1038 833 l 275 833 l 275 589 l 721 589 l 721 444 l 275 444 l 275 144 l 986 144 q 1072 151 1038 144 q 1126 174 1106 158 q 1154 215 1146 189 q 1163 281 1163 242 l 1163 689 z "},"ñ":{"ha":1475,"x_min":90,"x_max":1385,"o":"m 90 0 m 1294 0 l 251 761 l 251 0 l 90 0 l 90 978 l 250 978 l 1224 251 l 1224 978 l 1385 978 l 1385 0 l 1294 0 m 979 1114 q 927 1081 957 1090 q 863 1072 897 1072 q 806 1081 833 1072 q 752 1101 779 1090 q 698 1120 725 1111 q 640 1129 671 1129 q 574 1115 604 1129 q 524 1079 543 1100 l 524 1194 q 576 1226 546 1217 q 640 1236 606 1236 q 698 1227 671 1236 q 752 1207 725 1218 q 806 1187 779 1196 q 863 1178 833 1178 q 929 1192 899 1178 q 979 1228 960 1207 l 979 1114 z "},"ò":{"ha":1426,"x_min":83,"x_max":1343,"o":"m 83 0 m 390 0 q 249 17 307 0 q 153 66 190 35 q 100 140 117 97 q 83 236 83 183 l 83 742 q 100 838 83 794 q 153 912 117 881 q 249 960 190 943 q 390 978 307 978 l 1036 978 q 1178 960 1119 978 q 1273 912 1236 943 q 1326 838 1310 881 q 1343 742 1343 794 l 1343 236 q 1326 140 1343 183 q 1273 66 1310 97 q 1178 17 1236 35 q 1036 0 1119 0 l 390 0 m 1158 743 q 1036 833 1158 833 l 390 833 q 268 743 268 833 l 268 235 q 390 144 268 144 l 1036 144 q 1158 235 1158 144 l 1158 743 m 443 1103 l 443 1260 l 899 1164 l 899 1049 l 443 1103 z "},"ó":{"ha":1426,"x_min":83,"x_max":1343,"o":"m 83 0 m 390 0 q 249 17 307 0 q 153 66 190 35 q 100 140 117 97 q 83 236 83 183 l 83 742 q 100 838 83 794 q 153 912 117 881 q 249 960 190 943 q 390 978 307 978 l 1036 978 q 1178 960 1119 978 q 1273 912 1236 943 q 1326 838 1310 881 q 1343 742 1343 794 l 1343 236 q 1326 140 1343 183 q 1273 66 1310 97 q 1178 17 1236 35 q 1036 0 1119 0 l 390 0 m 1158 743 q 1036 833 1158 833 l 390 833 q 268 743 268 833 l 268 235 q 390 144 268 144 l 1036 144 q 1158 235 1158 144 l 1158 743 m 528 1049 l 528 1164 l 982 1260 l 982 1103 l 528 1049 z "},"ô":{"ha":1426,"x_min":83,"x_max":1343,"o":"m 83 0 m 390 0 q 249 17 307 0 q 153 66 190 35 q 100 140 117 97 q 83 236 83 183 l 83 742 q 100 838 83 794 q 153 912 117 881 q 249 960 190 943 q 390 978 307 978 l 1036 978 q 1178 960 1119 978 q 1273 912 1236 943 q 1326 838 1310 881 q 1343 742 1343 794 l 1343 236 q 1326 140 1343 183 q 1273 66 1310 97 q 1178 17 1236 35 q 1036 0 1119 0 l 390 0 m 1158 743 q 1036 833 1158 833 l 390 833 q 268 743 268 833 l 268 235 q 390 144 268 144 l 1036 144 q 1158 235 1158 144 l 1158 743 m 806 1049 l 719 1189 l 706 1189 l 622 1049 l 469 1049 l 614 1260 l 814 1260 l 957 1049 l 806 1049 z "},"õ":{"ha":1426,"x_min":83,"x_max":1343,"o":"m 83 0 m 390 0 q 249 17 307 0 q 153 66 190 35 q 100 140 117 97 q 83 236 83 183 l 83 742 q 100 838 83 794 q 153 912 117 881 q 249 960 190 943 q 390 978 307 978 l 1036 978 q 1178 960 1119 978 q 1273 912 1236 943 q 1326 838 1310 881 q 1343 742 1343 794 l 1343 236 q 1326 140 1343 183 q 1273 66 1310 97 q 1178 17 1236 35 q 1036 0 1119 0 l 390 0 m 1158 743 q 1036 833 1158 833 l 390 833 q 268 743 268 833 l 268 235 q 390 144 268 144 l 1036 144 q 1158 235 1158 144 l 1158 743 m 940 1114 q 888 1081 918 1090 q 824 1072 858 1072 q 767 1081 794 1072 q 713 1101 740 1090 q 659 1120 686 1111 q 601 1129 632 1129 q 535 1115 565 1129 q 485 1079 504 1100 l 485 1194 q 537 1226 507 1217 q 601 1236 567 1236 q 659 1227 632 1236 q 713 1207 686 1218 q 767 1187 740 1196 q 824 1178 794 1178 q 890 1192 860 1178 q 940 1228 921 1207 l 940 1114 z "},"ö":{"ha":1426,"x_min":83,"x_max":1343,"o":"m 83 0 m 390 0 q 249 17 307 0 q 153 66 190 35 q 100 140 117 97 q 83 236 83 183 l 83 742 q 100 838 83 794 q 153 912 117 881 q 249 960 190 943 q 390 978 307 978 l 1036 978 q 1178 960 1119 978 q 1273 912 1236 943 q 1326 838 1310 881 q 1343 742 1343 794 l 1343 236 q 1326 140 1343 183 q 1273 66 1310 97 q 1178 17 1236 35 q 1036 0 1119 0 l 390 0 m 1158 743 q 1036 833 1158 833 l 390 833 q 268 743 268 833 l 268 235 q 390 144 268 144 l 1036 144 q 1158 235 1158 144 l 1158 743 m 429 1094 l 429 1275 l 619 1275 l 619 1094 l 429 1094 m 807 1094 l 807 1275 l 997 1275 l 997 1094 l 807 1094 z "},"÷":{"ha":754,"x_min":56,"x_max":697,"o":"m 56 83 m 56 453 l 56 556 l 697 556 l 697 453 l 56 453 m 268 708 l 268 889 l 486 889 l 486 708 l 268 708 m 268 83 l 268 264 l 486 264 l 486 83 l 268 83 z "},"ø":{"ha":1426,"x_min":83,"x_max":1343,"o":"m 83 0 m 390 0 q 311 4 349 0 l 218 -96 l 153 -42 l 217 28 q 115 110 146 56 q 83 236 83 164 l 83 742 q 100 838 83 794 q 153 912 117 881 q 249 960 190 943 q 390 978 307 978 l 1036 978 q 1070 977 1054 978 q 1101 975 1086 976 l 1210 1090 l 1272 1033 l 1197 954 q 1309 872 1275 926 q 1343 742 1343 817 l 1343 236 q 1326 140 1343 183 q 1273 66 1310 97 q 1178 17 1236 35 q 1036 0 1119 0 l 390 0 m 1158 743 q 1082 829 1158 815 l 443 144 l 1036 144 q 1158 235 1158 144 l 1158 743 m 969 833 l 390 833 q 268 743 268 833 l 268 235 q 332 151 268 169 l 969 833 z "},"ù":{"ha":1393,"x_min":86,"x_max":1307,"o":"m 86 0 m 393 0 q 251 17 310 0 q 156 66 193 35 q 103 140 119 97 q 86 236 86 183 l 86 978 l 271 978 l 271 235 q 393 144 271 144 l 1000 144 q 1122 235 1122 144 l 1122 978 l 1307 978 l 1307 236 q 1297 140 1307 183 q 1256 66 1286 97 q 1174 17 1226 35 q 1039 0 1122 0 l 393 0 m 426 1103 l 426 1260 l 882 1164 l 882 1049 l 426 1103 z "},"ú":{"ha":1393,"x_min":86,"x_max":1307,"o":"m 86 0 m 393 0 q 251 17 310 0 q 156 66 193 35 q 103 140 119 97 q 86 236 86 183 l 86 978 l 271 978 l 271 235 q 393 144 271 144 l 1000 144 q 1122 235 1122 144 l 1122 978 l 1307 978 l 1307 236 q 1297 140 1307 183 q 1256 66 1286 97 q 1174 17 1226 35 q 1039 0 1122 0 l 393 0 m 511 1049 l 511 1164 l 965 1260 l 965 1103 l 511 1049 z "},"û":{"ha":1393,"x_min":86,"x_max":1307,"o":"m 86 0 m 393 0 q 251 17 310 0 q 156 66 193 35 q 103 140 119 97 q 86 236 86 183 l 86 978 l 271 978 l 271 235 q 393 144 271 144 l 1000 144 q 1122 235 1122 144 l 1122 978 l 1307 978 l 1307 236 q 1297 140 1307 183 q 1256 66 1286 97 q 1174 17 1226 35 q 1039 0 1122 0 l 393 0 m 789 1049 l 703 1189 l 689 1189 l 606 1049 l 453 1049 l 597 1260 l 797 1260 l 940 1049 l 789 1049 z "},"ü":{"ha":1393,"x_min":86,"x_max":1307,"o":"m 86 0 m 393 0 q 251 17 310 0 q 156 66 193 35 q 103 140 119 97 q 86 236 86 183 l 86 978 l 271 978 l 271 235 q 393 144 271 144 l 1000 144 q 1122 235 1122 144 l 1122 978 l 1307 978 l 1307 236 q 1297 140 1307 183 q 1256 66 1286 97 q 1174 17 1226 35 q 1039 0 1122 0 l 393 0 m 413 1094 l 413 1275 l 603 1275 l 603 1094 l 413 1094 m 790 1094 l 790 1275 l 981 1275 l 981 1094 l 790 1094 z "},"ý":{"ha":1436,"x_min":0,"x_max":1436,"o":"m 0 0 m 628 0 l 628 397 l 0 978 l 236 978 l 719 531 l 1203 978 l 1436 978 l 813 397 l 813 0 l 628 0 m 533 1049 l 533 1164 l 988 1260 l 988 1103 l 533 1049 z "},"þ":{"ha":1161,"x_min":90,"x_max":1110,"o":"m 90 0 m 275 139 l 275 0 l 90 0 l 90 978 l 275 978 l 275 838 l 803 838 q 944 820 886 838 q 1040 772 1003 803 q 1093 697 1076 740 q 1110 601 1110 654 l 1110 375 q 1093 279 1110 322 q 1040 205 1076 236 q 944 156 1003 174 q 803 139 886 139 l 275 139 m 925 603 q 803 693 925 693 l 275 693 l 275 283 l 803 283 q 925 374 925 283 l 925 603 z "},"ÿ":{"ha":1436,"x_min":0,"x_max":1436,"o":"m 0 0 m 628 0 l 628 397 l 0 978 l 236 978 l 719 531 l 1203 978 l 1436 978 l 813 397 l 813 0 l 628 0 m 433 1094 l 433 1275 l 624 1275 l 624 1094 l 433 1094 m 811 1094 l 811 1275 l 1001 1275 l 1001 1094 l 811 1094 z "},"Ā":{"ha":1431,"x_min":0,"x_max":1431,"o":"m 0 0 m 1222 0 l 718 788 l 206 0 l 0 0 l 650 978 l 785 978 l 1431 0 l 1222 0 m 488 1097 l 488 1213 l 943 1213 l 943 1097 l 488 1097 z "},"ā":{"ha":1431,"x_min":0,"x_max":1431,"o":"m 0 0 m 1222 0 l 718 788 l 206 0 l 0 0 l 650 978 l 785 978 l 1431 0 l 1222 0 m 488 1097 l 488 1213 l 943 1213 l 943 1097 l 488 1097 z "},"Ă":{"ha":1431,"x_min":0,"x_max":1431,"o":"m 0 0 m 1222 0 l 718 788 l 206 0 l 0 0 l 650 978 l 785 978 l 1431 0 l 1222 0 m 668 1049 q 576 1072 614 1049 q 515 1127 538 1094 q 481 1196 492 1160 q 471 1260 471 1232 l 624 1260 q 628 1222 624 1244 q 641 1181 632 1200 q 667 1147 650 1161 q 708 1133 683 1133 l 731 1133 q 767 1147 753 1133 q 791 1181 782 1161 q 803 1222 800 1200 q 807 1260 807 1244 l 958 1260 q 948 1196 958 1232 q 915 1127 938 1160 q 854 1072 892 1094 q 763 1049 817 1049 l 668 1049 z "},"ă":{"ha":1431,"x_min":0,"x_max":1431,"o":"m 0 0 m 1222 0 l 718 788 l 206 0 l 0 0 l 650 978 l 785 978 l 1431 0 l 1222 0 m 668 1049 q 576 1072 614 1049 q 515 1127 538 1094 q 481 1196 492 1160 q 471 1260 471 1232 l 624 1260 q 628 1222 624 1244 q 641 1181 632 1200 q 667 1147 650 1161 q 708 1133 683 1133 l 731 1133 q 767 1147 753 1133 q 791 1181 782 1161 q 803 1222 800 1200 q 807 1260 807 1244 l 958 1260 q 948 1196 958 1232 q 915 1127 938 1160 q 854 1072 892 1094 q 763 1049 817 1049 l 668 1049 z "},"Ą":{"ha":1431,"x_min":0,"x_max":1431,"o":"m 1260 -312 q 1163 -279 1196 -312 q 1129 -201 1129 -246 q 1146 -137 1129 -169 q 1197 -81 1163 -106 l 1307 0 l 1222 0 l 718 788 l 206 0 l 0 0 l 650 978 l 785 978 l 1431 0 l 1269 -117 q 1256 -144 1256 -126 q 1262 -161 1256 -154 q 1283 -168 1268 -168 l 1431 -168 l 1431 -312 l 1260 -312 z "},"ą":{"ha":1431,"x_min":0,"x_max":1431,"o":"m 0 0 m 1260 -312 q 1163 -279 1196 -312 q 1129 -201 1129 -246 q 1146 -137 1129 -169 q 1197 -81 1163 -106 l 1307 0 l 1222 0 l 718 788 l 206 0 l 0 0 l 650 978 l 785 978 l 1431 0 l 1269 -117 q 1256 -144 1256 -126 q 1262 -161 1256 -154 q 1283 -168 1268 -168 l 1431 -168 l 1431 -312 l 1260 -312 z "},"Ć":{"ha":1243,"x_min":83,"x_max":1178,"o":"m 83 0 m 390 0 q 249 17 307 0 q 153 66 190 35 q 100 140 117 97 q 83 236 83 183 l 83 742 q 100 838 83 794 q 153 912 117 881 q 249 960 190 943 q 390 978 307 978 l 1178 978 l 1178 833 l 390 833 q 268 743 268 833 l 268 235 q 390 144 268 144 l 1178 144 l 1178 0 l 390 0 m 450 1049 l 450 1164 l 904 1260 l 904 1103 l 450 1049 z "},"ć":{"ha":1243,"x_min":83,"x_max":1178,"o":"m 83 0 m 390 0 q 249 17 307 0 q 153 66 190 35 q 100 140 117 97 q 83 236 83 183 l 83 742 q 100 838 83 794 q 153 912 117 881 q 249 960 190 943 q 390 978 307 978 l 1178 978 l 1178 833 l 390 833 q 268 743 268 833 l 268 235 q 390 144 268 144 l 1178 144 l 1178 0 l 390 0 m 450 1049 l 450 1164 l 904 1260 l 904 1103 l 450 1049 z "},"Ċ":{"ha":1243,"x_min":83,"x_max":1178,"o":"m 83 0 m 390 0 q 249 17 307 0 q 153 66 190 35 q 100 140 117 97 q 83 236 83 183 l 83 742 q 100 838 83 794 q 153 912 117 881 q 249 960 190 943 q 390 978 307 978 l 1178 978 l 1178 833 l 390 833 q 268 743 268 833 l 268 235 q 390 144 268 144 l 1178 144 l 1178 0 l 390 0 m 568 1094 l 568 1275 l 758 1275 l 758 1094 l 568 1094 z "},"ċ":{"ha":1243,"x_min":83,"x_max":1178,"o":"m 83 0 m 390 0 q 249 17 307 0 q 153 66 190 35 q 100 140 117 97 q 83 236 83 183 l 83 742 q 100 838 83 794 q 153 912 117 881 q 249 960 190 943 q 390 978 307 978 l 1178 978 l 1178 833 l 390 833 q 268 743 268 833 l 268 235 q 390 144 268 144 l 1178 144 l 1178 0 l 390 0 m 568 1094 l 568 1275 l 758 1275 l 758 1094 l 568 1094 z "},"Č":{"ha":1243,"x_min":83,"x_max":1178,"o":"m 83 0 m 390 0 q 249 17 307 0 q 153 66 190 35 q 100 140 117 97 q 83 236 83 183 l 83 742 q 100 838 83 794 q 153 912 117 881 q 249 960 190 943 q 390 978 307 978 l 1178 978 l 1178 833 l 390 833 q 268 743 268 833 l 268 235 q 390 144 268 144 l 1178 144 l 1178 0 l 390 0 m 563 1049 l 419 1260 l 572 1260 l 657 1119 l 671 1119 l 756 1260 l 907 1260 l 763 1049 l 563 1049 z "},"č":{"ha":1243,"x_min":83,"x_max":1178,"o":"m 83 0 m 390 0 q 249 17 307 0 q 153 66 190 35 q 100 140 117 97 q 83 236 83 183 l 83 742 q 100 838 83 794 q 153 912 117 881 q 249 960 190 943 q 390 978 307 978 l 1178 978 l 1178 833 l 390 833 q 268 743 268 833 l 268 235 q 390 144 268 144 l 1178 144 l 1178 0 l 390 0 m 563 1049 l 419 1260 l 572 1260 l 657 1119 l 671 1119 l 756 1260 l 907 1260 l 763 1049 l 563 1049 z "},"Ď":{"ha":1431,"x_min":90,"x_max":1347,"o":"m 90 0 m 90 0 l 90 978 l 986 978 q 1160 960 1090 978 q 1271 906 1229 942 q 1330 815 1313 869 q 1347 689 1347 761 l 1347 279 q 1330 158 1347 210 q 1271 71 1313 106 q 1160 18 1229 36 q 986 0 1090 0 l 90 0 m 1163 689 q 1154 758 1163 731 q 1126 803 1146 786 q 1072 826 1106 819 q 986 833 1038 833 l 275 833 l 275 144 l 986 144 q 1072 151 1038 144 q 1126 174 1106 158 q 1154 215 1146 189 q 1163 281 1163 242 l 1163 689 m 586 1049 l 443 1260 l 596 1260 l 681 1119 l 694 1119 l 779 1260 l 931 1260 l 786 1049 l 586 1049 z "},"ď":{"ha":1431,"x_min":90,"x_max":1347,"o":"m 90 0 m 90 0 l 90 978 l 986 978 q 1160 960 1090 978 q 1271 906 1229 942 q 1330 815 1313 869 q 1347 689 1347 761 l 1347 279 q 1330 158 1347 210 q 1271 71 1313 106 q 1160 18 1229 36 q 986 0 1090 0 l 90 0 m 1163 689 q 1154 758 1163 731 q 1126 803 1146 786 q 1072 826 1106 819 q 986 833 1038 833 l 275 833 l 275 144 l 986 144 q 1072 151 1038 144 q 1126 174 1106 158 q 1154 215 1146 189 q 1163 281 1163 242 l 1163 689 m 586 1049 l 443 1260 l 596 1260 l 681 1119 l 694 1119 l 779 1260 l 931 1260 l 786 1049 l 586 1049 z "},"Đ":{"ha":1431,"x_min":0,"x_max":1347,"o":"m 0 0 m 90 0 l 90 444 l 0 444 l 0 589 l 90 589 l 90 978 l 986 978 q 1160 960 1090 978 q 1271 906 1229 942 q 1330 815 1313 869 q 1347 689 1347 761 l 1347 279 q 1330 158 1347 210 q 1271 71 1313 106 q 1160 18 1229 36 q 986 0 1090 0 l 90 0 m 1163 689 q 1154 758 1163 731 q 1126 803 1146 786 q 1072 826 1106 819 q 986 833 1038 833 l 275 833 l 275 589 l 721 589 l 721 444 l 275 444 l 275 144 l 986 144 q 1072 151 1038 144 q 1126 174 1106 158 q 1154 215 1146 189 q 1163 281 1163 242 l 1163 689 z "},"đ":{"ha":1431,"x_min":0,"x_max":1347,"o":"m 0 0 m 90 0 l 90 444 l 0 444 l 0 589 l 90 589 l 90 978 l 986 978 q 1160 960 1090 978 q 1271 906 1229 942 q 1330 815 1313 869 q 1347 689 1347 761 l 1347 279 q 1330 158 1347 210 q 1271 71 1313 106 q 1160 18 1229 36 q 986 0 1090 0 l 90 0 m 1163 689 q 1154 758 1163 731 q 1126 803 1146 786 q 1072 826 1106 819 q 986 833 1038 833 l 275 833 l 275 589 l 721 589 l 721 444 l 275 444 l 275 144 l 986 144 q 1072 151 1038 144 q 1126 174 1106 158 q 1154 215 1146 189 q 1163 281 1163 242 l 1163 689 z "},"Ē":{"ha":1163,"x_min":90,"x_max":1096,"o":"m 90 0 m 90 0 l 90 978 l 1096 978 l 1096 833 l 275 833 l 275 589 l 1054 589 l 1054 444 l 275 444 l 275 144 l 1096 144 l 1096 0 l 90 0 m 367 1097 l 367 1213 l 822 1213 l 822 1097 l 367 1097 z "},"ē":{"ha":1163,"x_min":90,"x_max":1096,"o":"m 90 0 m 90 0 l 90 978 l 1096 978 l 1096 833 l 275 833 l 275 589 l 1054 589 l 1054 444 l 275 444 l 275 144 l 1096 144 l 1096 0 l 90 0 m 367 1097 l 367 1213 l 822 1213 l 822 1097 l 367 1097 z "},"Ĕ":{"ha":1163,"x_min":90,"x_max":1096,"o":"m 90 0 m 90 0 l 90 978 l 1096 978 l 1096 833 l 275 833 l 275 589 l 1054 589 l 1054 444 l 275 444 l 275 144 l 1096 144 l 1096 0 l 90 0 m 549 1049 q 456 1072 494 1049 q 395 1127 418 1094 q 362 1196 372 1160 q 351 1260 351 1232 l 504 1260 q 508 1222 504 1244 q 522 1181 513 1200 q 547 1147 531 1161 q 589 1133 564 1133 l 611 1133 q 648 1147 633 1133 q 672 1181 663 1161 q 684 1222 681 1200 q 688 1260 688 1244 l 839 1260 q 828 1196 839 1232 q 795 1127 818 1160 q 735 1072 772 1094 q 643 1049 697 1049 l 549 1049 z "},"ĕ":{"ha":1163,"x_min":90,"x_max":1096,"o":"m 90 0 m 90 0 l 90 978 l 1096 978 l 1096 833 l 275 833 l 275 589 l 1054 589 l 1054 444 l 275 444 l 275 144 l 1096 144 l 1096 0 l 90 0 m 549 1049 q 456 1072 494 1049 q 395 1127 418 1094 q 362 1196 372 1160 q 351 1260 351 1232 l 504 1260 q 508 1222 504 1244 q 522 1181 513 1200 q 547 1147 531 1161 q 589 1133 564 1133 l 611 1133 q 648 1147 633 1133 q 672 1181 663 1161 q 684 1222 681 1200 q 688 1260 688 1244 l 839 1260 q 828 1196 839 1232 q 795 1127 818 1160 q 735 1072 772 1094 q 643 1049 697 1049 l 549 1049 z "},"Ė":{"ha":1163,"x_min":90,"x_max":1096,"o":"m 90 0 m 90 0 l 90 978 l 1096 978 l 1096 833 l 275 833 l 275 589 l 1054 589 l 1054 444 l 275 444 l 275 144 l 1096 144 l 1096 0 l 90 0 m 500 1094 l 500 1275 l 690 1275 l 690 1094 l 500 1094 z "},"ė":{"ha":1163,"x_min":90,"x_max":1096,"o":"m 90 0 m 90 0 l 90 978 l 1096 978 l 1096 833 l 275 833 l 275 589 l 1054 589 l 1054 444 l 275 444 l 275 144 l 1096 144 l 1096 0 l 90 0 m 500 1094 l 500 1275 l 690 1275 l 690 1094 l 500 1094 z "},"Ę":{"ha":1163,"x_min":90,"x_max":1096,"o":"m 925 -312 q 828 -279 861 -312 q 794 -201 794 -246 q 811 -137 794 -169 q 863 -81 828 -106 l 972 0 l 90 0 l 90 978 l 1096 978 l 1096 833 l 275 833 l 275 589 l 1054 589 l 1054 444 l 275 444 l 275 144 l 1096 144 l 1096 0 l 935 -117 q 921 -144 921 -126 q 927 -161 921 -154 q 949 -168 933 -168 l 1096 -168 l 1096 -312 l 925 -312 z "},"ę":{"ha":1163,"x_min":90,"x_max":1096,"o":"m 90 0 m 925 -312 q 828 -279 861 -312 q 794 -201 794 -246 q 811 -137 794 -169 q 863 -81 828 -106 l 972 0 l 90 0 l 90 978 l 1096 978 l 1096 833 l 275 833 l 275 589 l 1054 589 l 1054 444 l 275 444 l 275 144 l 1096 144 l 1096 0 l 935 -117 q 921 -144 921 -126 q 927 -161 921 -154 q 949 -168 933 -168 l 1096 -168 l 1096 -312 l 925 -312 z "},"Ě":{"ha":1163,"x_min":90,"x_max":1096,"o":"m 90 0 m 90 0 l 90 978 l 1096 978 l 1096 833 l 275 833 l 275 589 l 1054 589 l 1054 444 l 275 444 l 275 144 l 1096 144 l 1096 0 l 90 0 m 494 1049 l 351 1260 l 504 1260 l 589 1119 l 603 1119 l 688 1260 l 839 1260 l 694 1049 l 494 1049 z "},"ě":{"ha":1163,"x_min":90,"x_max":1096,"o":"m 90 0 m 90 0 l 90 978 l 1096 978 l 1096 833 l 275 833 l 275 589 l 1054 589 l 1054 444 l 275 444 l 275 144 l 1096 144 l 1096 0 l 90 0 m 494 1049 l 351 1260 l 504 1260 l 589 1119 l 603 1119 l 688 1260 l 839 1260 l 694 1049 l 494 1049 z "},"Ğ":{"ha":1293,"x_min":83,"x_max":1213,"o":"m 83 0 m 432 0 q 83 211 83 0 l 83 767 q 432 978 83 978 l 1197 978 l 1197 833 l 432 833 q 268 767 268 833 l 268 211 q 432 144 268 144 l 864 144 q 1028 208 1028 144 l 1028 533 l 1213 533 l 1213 208 q 864 0 1213 0 l 432 0 m 617 1040 q 524 1063 563 1040 q 463 1119 486 1086 q 430 1188 440 1151 q 419 1251 419 1224 l 572 1251 q 576 1214 572 1236 q 590 1172 581 1192 q 615 1139 599 1153 q 657 1125 632 1125 l 679 1125 q 716 1139 701 1125 q 740 1172 731 1153 q 752 1214 749 1192 q 756 1251 756 1236 l 907 1251 q 897 1188 907 1224 q 863 1119 886 1151 q 803 1063 840 1086 q 711 1040 765 1040 l 617 1040 z "},"ğ":{"ha":1293,"x_min":83,"x_max":1213,"o":"m 83 0 m 432 0 q 83 211 83 0 l 83 767 q 432 978 83 978 l 1197 978 l 1197 833 l 432 833 q 268 767 268 833 l 268 211 q 432 144 268 144 l 864 144 q 1028 208 1028 144 l 1028 533 l 1213 533 l 1213 208 q 864 0 1213 0 l 432 0 m 617 1040 q 524 1063 563 1040 q 463 1119 486 1086 q 430 1188 440 1151 q 419 1251 419 1224 l 572 1251 q 576 1214 572 1236 q 590 1172 581 1192 q 615 1139 599 1153 q 657 1125 632 1125 l 679 1125 q 716 1139 701 1125 q 740 1172 731 1153 q 752 1214 749 1192 q 756 1251 756 1236 l 907 1251 q 897 1188 907 1224 q 863 1119 886 1151 q 803 1063 840 1086 q 711 1040 765 1040 l 617 1040 z "},"Ġ":{"ha":1293,"x_min":83,"x_max":1213,"o":"m 83 0 m 432 0 q 83 211 83 0 l 83 767 q 432 978 83 978 l 1197 978 l 1197 833 l 432 833 q 268 767 268 833 l 268 211 q 432 144 268 144 l 864 144 q 1028 208 1028 144 l 1028 533 l 1213 533 l 1213 208 q 864 0 1213 0 l 432 0 m 551 1094 l 551 1275 l 742 1275 l 742 1094 l 551 1094 z "},"ġ":{"ha":1293,"x_min":83,"x_max":1213,"o":"m 83 0 m 432 0 q 83 211 83 0 l 83 767 q 432 978 83 978 l 1197 978 l 1197 833 l 432 833 q 268 767 268 833 l 268 211 q 432 144 268 144 l 864 144 q 1028 208 1028 144 l 1028 533 l 1213 533 l 1213 208 q 864 0 1213 0 l 432 0 m 551 1094 l 551 1275 l 742 1275 l 742 1094 l 551 1094 z "},"Ģ":{"ha":1293,"x_min":83,"x_max":1213,"o":"m 83 0 m 432 0 q 83 211 83 0 l 83 767 q 432 978 83 978 l 1197 978 l 1197 833 l 432 833 q 268 767 268 833 l 268 211 q 432 144 268 144 l 864 144 q 1028 208 1028 144 l 1028 533 l 1213 533 l 1213 208 q 864 0 1213 0 l 432 0 m 551 -333 l 551 -51 l 742 -51 l 742 -135 l 625 -333 l 551 -333 z "},"ģ":{"ha":1293,"x_min":83,"x_max":1213,"o":"m 83 0 m 432 0 q 83 211 83 0 l 83 767 q 432 978 83 978 l 1197 978 l 1197 833 l 432 833 q 268 767 268 833 l 268 211 q 432 144 268 144 l 864 144 q 1028 208 1028 144 l 1028 533 l 1213 533 l 1213 208 q 864 0 1213 0 l 432 0 m 551 -333 l 551 -51 l 742 -51 l 742 -135 l 625 -333 l 551 -333 z "},"Ħ":{"ha":1350,"x_min":90,"x_max":1260,"o":"m 1075 0 l 1075 444 l 275 444 l 275 0 l 90 0 l 90 978 l 275 978 l 275 851 l 1075 851 l 1075 978 l 1260 978 l 1260 0 l 1075 0 m 1075 589 l 1075 736 l 275 736 l 275 589 l 1075 589 z "},"ħ":{"ha":1350,"x_min":90,"x_max":1260,"o":"m 90 0 m 1075 0 l 1075 444 l 275 444 l 275 0 l 90 0 l 90 978 l 275 978 l 275 851 l 1075 851 l 1075 978 l 1260 978 l 1260 0 l 1075 0 m 1075 589 l 1075 736 l 275 736 l 275 589 l 1075 589 z "},"Ī":{"ha":379,"x_min":-36,"x_max":419,"o":"m 0 0 m 97 0 l 97 978 l 282 978 l 282 0 l 97 0 m -36 1097 l -36 1213 l 419 1213 l 419 1097 l -36 1097 z "},"ī":{"ha":379,"x_min":-36,"x_max":419,"o":"m 0 0 m 97 0 l 97 978 l 282 978 l 282 0 l 97 0 m -36 1097 l -36 1213 l 419 1213 l 419 1097 l -36 1097 z "},"Ĭ":{"ha":379,"x_min":-53,"x_max":435,"o":"m 0 0 m 97 0 l 97 978 l 282 978 l 282 0 l 97 0 m 144 1049 q 52 1072 90 1049 q -9 1127 14 1094 q -42 1196 -32 1160 q -53 1260 -53 1232 l 100 1260 q 104 1222 100 1244 q 117 1181 108 1200 q 143 1147 126 1161 q 185 1133 160 1133 l 207 1133 q 244 1147 229 1133 q 267 1181 258 1161 q 280 1222 276 1200 q 283 1260 283 1244 l 435 1260 q 424 1196 435 1232 q 391 1127 414 1160 q 331 1072 368 1094 q 239 1049 293 1049 l 144 1049 z "},"ĭ":{"ha":379,"x_min":-53,"x_max":435,"o":"m 0 0 m 97 0 l 97 978 l 282 978 l 282 0 l 97 0 m 144 1049 q 52 1072 90 1049 q -9 1127 14 1094 q -42 1196 -32 1160 q -53 1260 -53 1232 l 100 1260 q 104 1222 100 1244 q 117 1181 108 1200 q 143 1147 126 1161 q 185 1133 160 1133 l 207 1133 q 244 1147 229 1133 q 267 1181 258 1161 q 280 1222 276 1200 q 283 1260 283 1244 l 435 1260 q 424 1196 435 1232 q 391 1127 414 1160 q 331 1072 368 1094 q 239 1049 293 1049 l 144 1049 z "},"Į":{"ha":379,"x_min":-19,"x_max":282,"o":"m 111 -312 q 14 -279 47 -312 q -19 -201 -19 -246 q -3 -137 -19 -169 q 49 -81 14 -106 l 158 0 l 97 0 l 97 978 l 282 978 l 282 0 l 121 -117 q 107 -144 107 -126 q 113 -161 107 -154 q 135 -168 119 -168 l 282 -168 l 282 -312 l 111 -312 z "},"į":{"ha":379,"x_min":-19,"x_max":282,"o":"m 0 0 m 111 -312 q 14 -279 47 -312 q -19 -201 -19 -246 q -3 -137 -19 -169 q 49 -81 14 -106 l 158 0 l 97 0 l 97 978 l 282 978 l 282 0 l 121 -117 q 107 -144 107 -126 q 113 -161 107 -154 q 135 -168 119 -168 l 282 -168 l 282 -312 l 111 -312 z "},"İ":{"ha":379,"x_min":94,"x_max":285,"o":"m 94 0 m 97 0 l 97 978 l 282 978 l 282 0 l 97 0 m 94 1094 l 94 1275 l 285 1275 l 285 1094 l 94 1094 z "},"ı":{"ha":379,"x_min":97,"x_max":282,"o":"m 97 0 m 97 0 l 97 978 l 282 978 l 282 0 l 97 0 z "},"Ĳ":{"ha":1051,"x_min":97,"x_max":965,"o":"m 97 0 m 97 0 l 97 978 l 282 978 l 282 0 l 97 0 m 392 0 l 392 144 l 660 144 q 752 160 724 144 q 781 208 781 176 l 781 978 l 965 978 l 965 208 q 948 124 965 163 q 894 58 931 86 q 799 15 857 31 q 660 0 740 0 l 392 0 z "},"ĳ":{"ha":1051,"x_min":97,"x_max":965,"o":"m 97 0 m 97 0 l 97 978 l 282 978 l 282 0 l 97 0 m 392 0 l 392 144 l 660 144 q 752 160 724 144 q 781 208 781 176 l 781 978 l 965 978 l 965 208 q 948 124 965 163 q 894 58 931 86 q 799 15 857 31 q 660 0 740 0 l 392 0 z "},"Ķ":{"ha":1193,"x_min":90,"x_max":1176,"o":"m 90 0 m 963 0 l 593 436 l 275 436 l 275 0 l 90 0 l 90 978 l 275 978 l 275 581 l 589 581 l 957 978 l 1176 978 l 742 522 l 1175 0 l 963 0 m 501 -333 l 501 -51 l 692 -51 l 692 -135 l 575 -333 l 501 -333 z "},"ķ":{"ha":1193,"x_min":90,"x_max":1176,"o":"m 90 0 m 963 0 l 593 436 l 275 436 l 275 0 l 90 0 l 90 978 l 275 978 l 275 581 l 589 581 l 957 978 l 1176 978 l 742 522 l 1175 0 l 963 0 m 501 -333 l 501 -51 l 692 -51 l 692 -135 l 575 -333 l 501 -333 z "},"Ĺ":{"ha":1108,"x_min":-6,"x_max":1069,"o":"m 0 0 m 90 0 l 90 978 l 276 978 l 276 144 l 1069 144 l 1069 0 l 90 0 m -6 1049 l -6 1164 l 449 1260 l 449 1103 l -6 1049 z "},"ĺ":{"ha":1108,"x_min":-6,"x_max":1069,"o":"m 0 0 m 90 0 l 90 978 l 276 978 l 276 144 l 1069 144 l 1069 0 l 90 0 m -6 1049 l -6 1164 l 449 1260 l 449 1103 l -6 1049 z "},"Ļ":{"ha":1108,"x_min":90,"x_max":1069,"o":"m 90 0 m 90 0 l 90 978 l 276 978 l 276 144 l 1069 144 l 1069 0 l 90 0 m 479 -333 l 479 -51 l 669 -51 l 669 -135 l 553 -333 l 479 -333 z "},"ļ":{"ha":1108,"x_min":90,"x_max":1069,"o":"m 90 0 m 90 0 l 90 978 l 276 978 l 276 144 l 1069 144 l 1069 0 l 90 0 m 479 -333 l 479 -51 l 669 -51 l 669 -135 l 553 -333 l 479 -333 z "},"Ľ":{"ha":1108,"x_min":90,"x_max":1069,"o":"m 90 0 m 90 0 l 90 978 l 276 978 l 276 144 l 1069 144 l 1069 0 l 90 0 m 421 696 l 421 978 l 611 978 l 611 894 l 494 696 l 421 696 z "},"ľ":{"ha":1108,"x_min":90,"x_max":1069,"o":"m 90 0 m 90 0 l 90 978 l 276 978 l 276 144 l 1069 144 l 1069 0 l 90 0 m 421 696 l 421 978 l 611 978 l 611 894 l 494 696 l 421 696 z "},"Ŀ":{"ha":1108,"x_min":90,"x_max":1069,"o":"m 90 0 m 90 0 l 90 978 l 276 978 l 276 144 l 1069 144 l 1069 0 l 90 0 m 344 440 l 344 621 l 535 621 l 535 440 l 344 440 z "},"ŀ":{"ha":1108,"x_min":90,"x_max":1069,"o":"m 90 0 m 90 0 l 90 978 l 276 978 l 276 144 l 1069 144 l 1069 0 l 90 0 m 344 440 l 344 621 l 535 621 l 535 440 l 344 440 z "},"Ł":{"ha":1125,"x_min":90,"x_max":1069,"o":"m 90 0 l 90 978 l 276 978 l 276 561 l 629 697 l 629 542 l 276 406 l 276 144 l 1069 144 l 1069 0 l 90 0 z "},"ł":{"ha":1125,"x_min":90,"x_max":1069,"o":"m 90 0 m 90 0 l 90 978 l 276 978 l 276 561 l 629 697 l 629 542 l 276 406 l 276 144 l 1069 144 l 1069 0 l 90 0 z "},"Ń":{"ha":1475,"x_min":90,"x_max":1385,"o":"m 90 0 m 1294 0 l 251 761 l 251 0 l 90 0 l 90 978 l 250 978 l 1224 251 l 1224 978 l 1385 978 l 1385 0 l 1294 0 m 551 1049 l 551 1164 l 1006 1260 l 1006 1103 l 551 1049 z "},"ń":{"ha":1475,"x_min":90,"x_max":1385,"o":"m 90 0 m 1294 0 l 251 761 l 251 0 l 90 0 l 90 978 l 250 978 l 1224 251 l 1224 978 l 1385 978 l 1385 0 l 1294 0 m 551 1049 l 551 1164 l 1006 1260 l 1006 1103 l 551 1049 z "},"Ņ":{"ha":1475,"x_min":90,"x_max":1385,"o":"m 90 0 m 1294 0 l 251 761 l 251 0 l 90 0 l 90 978 l 250 978 l 1224 251 l 1224 978 l 1385 978 l 1385 0 l 1294 0 m 642 -333 l 642 -51 l 832 -51 l 832 -135 l 715 -333 l 642 -333 z "},"ņ":{"ha":1475,"x_min":90,"x_max":1385,"o":"m 90 0 m 1294 0 l 251 761 l 251 0 l 90 0 l 90 978 l 250 978 l 1224 251 l 1224 978 l 1385 978 l 1385 0 l 1294 0 m 642 -333 l 642 -51 l 832 -51 l 832 -135 l 715 -333 l 642 -333 z "},"Ň":{"ha":1475,"x_min":90,"x_max":1385,"o":"m 90 0 m 1294 0 l 251 761 l 251 0 l 90 0 l 90 978 l 250 978 l 1224 251 l 1224 978 l 1385 978 l 1385 0 l 1294 0 m 636 1049 l 493 1260 l 646 1260 l 731 1119 l 744 1119 l 829 1260 l 981 1260 l 836 1049 l 636 1049 z "},"ň":{"ha":1475,"x_min":90,"x_max":1385,"o":"m 90 0 m 1294 0 l 251 761 l 251 0 l 90 0 l 90 978 l 250 978 l 1224 251 l 1224 978 l 1385 978 l 1385 0 l 1294 0 m 636 1049 l 493 1260 l 646 1260 l 731 1119 l 744 1119 l 829 1260 l 981 1260 l 836 1049 l 636 1049 z "},"Ŋ":{"ha":1475,"x_min":90,"x_max":1385,"o":"m 811 -333 l 811 -189 l 1079 -189 q 1183 -173 1143 -189 q 1224 -125 1224 -157 l 1224 51 l 251 761 l 251 0 l 90 0 l 90 978 l 250 978 l 1224 251 l 1224 978 l 1385 978 l 1385 -125 q 1367 -209 1385 -171 q 1313 -275 1350 -247 q 1218 -318 1276 -303 q 1079 -333 1160 -333 l 811 -333 z "},"ŋ":{"ha":1475,"x_min":90,"x_max":1385,"o":"m 90 0 m 811 -333 l 811 -189 l 1079 -189 q 1183 -173 1143 -189 q 1224 -125 1224 -157 l 1224 51 l 251 761 l 251 0 l 90 0 l 90 978 l 250 978 l 1224 251 l 1224 978 l 1385 978 l 1385 -125 q 1367 -209 1385 -171 q 1313 -275 1350 -247 q 1218 -318 1276 -303 q 1079 -333 1160 -333 l 811 -333 z "},"Ō":{"ha":1426,"x_min":83,"x_max":1343,"o":"m 83 0 m 390 0 q 249 17 307 0 q 153 66 190 35 q 100 140 117 97 q 83 236 83 183 l 83 742 q 100 838 83 794 q 153 912 117 881 q 249 960 190 943 q 390 978 307 978 l 1036 978 q 1178 960 1119 978 q 1273 912 1236 943 q 1326 838 1310 881 q 1343 742 1343 794 l 1343 236 q 1326 140 1343 183 q 1273 66 1310 97 q 1178 17 1236 35 q 1036 0 1119 0 l 390 0 m 1158 743 q 1036 833 1158 833 l 390 833 q 268 743 268 833 l 268 235 q 390 144 268 144 l 1036 144 q 1158 235 1158 144 l 1158 743 m 485 1097 l 485 1213 l 940 1213 l 940 1097 l 485 1097 z "},"ō":{"ha":1426,"x_min":83,"x_max":1343,"o":"m 83 0 m 390 0 q 249 17 307 0 q 153 66 190 35 q 100 140 117 97 q 83 236 83 183 l 83 742 q 100 838 83 794 q 153 912 117 881 q 249 960 190 943 q 390 978 307 978 l 1036 978 q 1178 960 1119 978 q 1273 912 1236 943 q 1326 838 1310 881 q 1343 742 1343 794 l 1343 236 q 1326 140 1343 183 q 1273 66 1310 97 q 1178 17 1236 35 q 1036 0 1119 0 l 390 0 m 1158 743 q 1036 833 1158 833 l 390 833 q 268 743 268 833 l 268 235 q 390 144 268 144 l 1036 144 q 1158 235 1158 144 l 1158 743 m 485 1097 l 485 1213 l 940 1213 l 940 1097 l 485 1097 z "},"Ŏ":{"ha":1426,"x_min":83,"x_max":1343,"o":"m 83 0 m 390 0 q 249 17 307 0 q 153 66 190 35 q 100 140 117 97 q 83 236 83 183 l 83 742 q 100 838 83 794 q 153 912 117 881 q 249 960 190 943 q 390 978 307 978 l 1036 978 q 1178 960 1119 978 q 1273 912 1236 943 q 1326 838 1310 881 q 1343 742 1343 794 l 1343 236 q 1326 140 1343 183 q 1273 66 1310 97 q 1178 17 1236 35 q 1036 0 1119 0 l 390 0 m 1158 743 q 1036 833 1158 833 l 390 833 q 268 743 268 833 l 268 235 q 390 144 268 144 l 1036 144 q 1158 235 1158 144 l 1158 743 m 667 1049 q 574 1072 613 1049 q 513 1127 536 1094 q 480 1196 490 1160 q 469 1260 469 1232 l 622 1260 q 626 1222 622 1244 q 640 1181 631 1200 q 665 1147 649 1161 q 707 1133 682 1133 l 729 1133 q 766 1147 751 1133 q 790 1181 781 1161 q 802 1222 799 1200 q 806 1260 806 1244 l 957 1260 q 947 1196 957 1232 q 913 1127 936 1160 q 853 1072 890 1094 q 761 1049 815 1049 l 667 1049 z "},"ŏ":{"ha":1426,"x_min":83,"x_max":1343,"o":"m 83 0 m 390 0 q 249 17 307 0 q 153 66 190 35 q 100 140 117 97 q 83 236 83 183 l 83 742 q 100 838 83 794 q 153 912 117 881 q 249 960 190 943 q 390 978 307 978 l 1036 978 q 1178 960 1119 978 q 1273 912 1236 943 q 1326 838 1310 881 q 1343 742 1343 794 l 1343 236 q 1326 140 1343 183 q 1273 66 1310 97 q 1178 17 1236 35 q 1036 0 1119 0 l 390 0 m 1158 743 q 1036 833 1158 833 l 390 833 q 268 743 268 833 l 268 235 q 390 144 268 144 l 1036 144 q 1158 235 1158 144 l 1158 743 m 667 1049 q 574 1072 613 1049 q 513 1127 536 1094 q 480 1196 490 1160 q 469 1260 469 1232 l 622 1260 q 626 1222 622 1244 q 640 1181 631 1200 q 665 1147 649 1161 q 707 1133 682 1133 l 729 1133 q 766 1147 751 1133 q 790 1181 781 1161 q 802 1222 799 1200 q 806 1260 806 1244 l 957 1260 q 947 1196 957 1232 q 913 1127 936 1160 q 853 1072 890 1094 q 761 1049 815 1049 l 667 1049 z "},"Ő":{"ha":1426,"x_min":83,"x_max":1343,"o":"m 83 0 m 390 0 q 249 17 307 0 q 153 66 190 35 q 100 140 117 97 q 83 236 83 183 l 83 742 q 100 838 83 794 q 153 912 117 881 q 249 960 190 943 q 390 978 307 978 l 1036 978 q 1178 960 1119 978 q 1273 912 1236 943 q 1326 838 1310 881 q 1343 742 1343 794 l 1343 236 q 1326 140 1343 183 q 1273 66 1310 97 q 1178 17 1236 35 q 1036 0 1119 0 l 390 0 m 1158 743 q 1036 833 1158 833 l 390 833 q 268 743 268 833 l 268 235 q 390 144 268 144 l 1036 144 q 1158 235 1158 144 l 1158 743 m 750 1063 l 826 1260 l 1017 1260 l 865 1063 l 750 1063 m 472 1063 l 546 1260 l 739 1260 l 586 1063 l 472 1063 z "},"ő":{"ha":1426,"x_min":83,"x_max":1343,"o":"m 83 0 m 390 0 q 249 17 307 0 q 153 66 190 35 q 100 140 117 97 q 83 236 83 183 l 83 742 q 100 838 83 794 q 153 912 117 881 q 249 960 190 943 q 390 978 307 978 l 1036 978 q 1178 960 1119 978 q 1273 912 1236 943 q 1326 838 1310 881 q 1343 742 1343 794 l 1343 236 q 1326 140 1343 183 q 1273 66 1310 97 q 1178 17 1236 35 q 1036 0 1119 0 l 390 0 m 1158 743 q 1036 833 1158 833 l 390 833 q 268 743 268 833 l 268 235 q 390 144 268 144 l 1036 144 q 1158 235 1158 144 l 1158 743 m 750 1063 l 826 1260 l 1017 1260 l 865 1063 l 750 1063 m 472 1063 l 546 1260 l 739 1260 l 586 1063 l 472 1063 z "},"Œ":{"ha":2022,"x_min":83,"x_max":1956,"o":"m 390 0 q 249 17 307 0 q 153 66 190 35 q 100 140 117 97 q 83 236 83 183 l 83 742 q 100 838 83 794 q 153 912 117 881 q 249 960 190 943 q 390 978 307 978 l 1956 978 l 1956 833 l 1135 833 l 1135 589 l 1914 589 l 1914 444 l 1135 444 l 1135 144 l 1956 144 l 1956 0 l 390 0 m 950 833 l 390 833 q 268 743 268 833 l 268 235 q 390 144 268 144 l 950 144 l 950 833 z "},"œ":{"ha":2022,"x_min":83,"x_max":1956,"o":"m 83 0 m 390 0 q 249 17 307 0 q 153 66 190 35 q 100 140 117 97 q 83 236 83 183 l 83 742 q 100 838 83 794 q 153 912 117 881 q 249 960 190 943 q 390 978 307 978 l 1956 978 l 1956 833 l 1135 833 l 1135 589 l 1914 589 l 1914 444 l 1135 444 l 1135 144 l 1956 144 l 1956 0 l 390 0 m 950 833 l 390 833 q 268 743 268 833 l 268 235 q 390 144 268 144 l 950 144 l 950 833 z "},"Ŕ":{"ha":1286,"x_min":90,"x_max":1228,"o":"m 90 0 m 1019 0 l 790 436 l 275 436 l 275 0 l 90 0 l 90 978 l 921 978 q 1063 960 1004 978 q 1158 912 1121 943 q 1211 838 1194 881 q 1228 742 1228 794 l 1228 672 q 1172 515 1228 578 q 986 439 1117 451 l 1217 0 l 1019 0 m 1043 743 q 921 833 1043 833 l 275 833 l 275 581 l 921 581 q 1043 671 1043 581 l 1043 743 m 429 1049 l 429 1164 l 883 1260 l 883 1103 l 429 1049 z "},"ŕ":{"ha":1286,"x_min":90,"x_max":1228,"o":"m 90 0 m 1019 0 l 790 436 l 275 436 l 275 0 l 90 0 l 90 978 l 921 978 q 1063 960 1004 978 q 1158 912 1121 943 q 1211 838 1194 881 q 1228 742 1228 794 l 1228 672 q 1172 515 1228 578 q 986 439 1117 451 l 1217 0 l 1019 0 m 1043 743 q 921 833 1043 833 l 275 833 l 275 581 l 921 581 q 1043 671 1043 581 l 1043 743 m 429 1049 l 429 1164 l 883 1260 l 883 1103 l 429 1049 z "},"Ŗ":{"ha":1286,"x_min":90,"x_max":1228,"o":"m 90 0 m 1019 0 l 790 436 l 275 436 l 275 0 l 90 0 l 90 978 l 921 978 q 1063 960 1004 978 q 1158 912 1121 943 q 1211 838 1194 881 q 1228 742 1228 794 l 1228 672 q 1172 515 1228 578 q 986 439 1117 451 l 1217 0 l 1019 0 m 1043 743 q 921 833 1043 833 l 275 833 l 275 581 l 921 581 q 1043 671 1043 581 l 1043 743 m 547 -333 l 547 -51 l 738 -51 l 738 -135 l 621 -333 l 547 -333 z "},"ŗ":{"ha":1286,"x_min":90,"x_max":1228,"o":"m 90 0 m 1019 0 l 790 436 l 275 436 l 275 0 l 90 0 l 90 978 l 921 978 q 1063 960 1004 978 q 1158 912 1121 943 q 1211 838 1194 881 q 1228 742 1228 794 l 1228 672 q 1172 515 1228 578 q 986 439 1117 451 l 1217 0 l 1019 0 m 1043 743 q 921 833 1043 833 l 275 833 l 275 581 l 921 581 q 1043 671 1043 581 l 1043 743 m 547 -333 l 547 -51 l 738 -51 l 738 -135 l 621 -333 l 547 -333 z "},"Ř":{"ha":1286,"x_min":90,"x_max":1228,"o":"m 90 0 m 1019 0 l 790 436 l 275 436 l 275 0 l 90 0 l 90 978 l 921 978 q 1063 960 1004 978 q 1158 912 1121 943 q 1211 838 1194 881 q 1228 742 1228 794 l 1228 672 q 1172 515 1228 578 q 986 439 1117 451 l 1217 0 l 1019 0 m 1043 743 q 921 833 1043 833 l 275 833 l 275 581 l 921 581 q 1043 671 1043 581 l 1043 743 m 528 1049 l 385 1260 l 538 1260 l 622 1119 l 636 1119 l 721 1260 l 872 1260 l 728 1049 l 528 1049 z "},"ř":{"ha":1286,"x_min":90,"x_max":1228,"o":"m 90 0 m 1019 0 l 790 436 l 275 436 l 275 0 l 90 0 l 90 978 l 921 978 q 1063 960 1004 978 q 1158 912 1121 943 q 1211 838 1194 881 q 1228 742 1228 794 l 1228 672 q 1172 515 1228 578 q 986 439 1117 451 l 1217 0 l 1019 0 m 1043 743 q 921 833 1043 833 l 275 833 l 275 581 l 921 581 q 1043 671 1043 581 l 1043 743 m 528 1049 l 385 1260 l 538 1260 l 622 1119 l 636 1119 l 721 1260 l 872 1260 l 728 1049 l 528 1049 z "},"Ś":{"ha":1321,"x_min":71,"x_max":1260,"o":"m 71 0 m 103 0 l 103 144 l 953 144 q 1075 235 1075 144 l 1075 358 q 953 449 1075 449 l 378 449 q 236 466 294 449 q 141 515 178 483 q 88 589 104 546 q 71 685 71 632 l 71 742 q 88 838 71 794 q 141 912 104 881 q 236 960 178 943 q 378 978 294 978 l 1206 978 l 1206 833 l 378 833 q 256 743 256 833 l 256 683 q 378 593 256 593 l 953 593 q 1094 576 1036 593 q 1190 527 1153 558 q 1243 453 1226 496 q 1260 357 1260 410 l 1260 236 q 1243 140 1260 183 q 1190 66 1226 97 q 1094 17 1153 35 q 953 0 1036 0 l 103 0 m 475 1049 l 475 1164 l 929 1260 l 929 1103 l 475 1049 z "},"ś":{"ha":1321,"x_min":71,"x_max":1260,"o":"m 71 0 m 103 0 l 103 144 l 953 144 q 1075 235 1075 144 l 1075 358 q 953 449 1075 449 l 378 449 q 236 466 294 449 q 141 515 178 483 q 88 589 104 546 q 71 685 71 632 l 71 742 q 88 838 71 794 q 141 912 104 881 q 236 960 178 943 q 378 978 294 978 l 1206 978 l 1206 833 l 378 833 q 256 743 256 833 l 256 683 q 378 593 256 593 l 953 593 q 1094 576 1036 593 q 1190 527 1153 558 q 1243 453 1226 496 q 1260 357 1260 410 l 1260 236 q 1243 140 1260 183 q 1190 66 1226 97 q 1094 17 1153 35 q 953 0 1036 0 l 103 0 m 475 1049 l 475 1164 l 929 1260 l 929 1103 l 475 1049 z "},"Ş":{"ha":1321,"x_min":71,"x_max":1260,"o":"m 71 0 m 103 0 l 103 144 l 953 144 q 1075 235 1075 144 l 1075 358 q 953 449 1075 449 l 378 449 q 236 466 294 449 q 141 515 178 483 q 88 589 104 546 q 71 685 71 632 l 71 742 q 88 838 71 794 q 141 912 104 881 q 236 960 178 943 q 378 978 294 978 l 1206 978 l 1206 833 l 378 833 q 256 743 256 833 l 256 683 q 378 593 256 593 l 953 593 q 1094 576 1036 593 q 1190 527 1153 558 q 1243 453 1226 496 q 1260 357 1260 410 l 1260 236 q 1243 140 1260 183 q 1190 66 1226 97 q 1094 17 1153 35 q 953 0 1036 0 l 103 0 m 565 -333 l 565 -51 l 756 -51 l 756 -135 l 639 -333 l 565 -333 z "},"ş":{"ha":1321,"x_min":71,"x_max":1260,"o":"m 71 0 m 103 0 l 103 144 l 953 144 q 1075 235 1075 144 l 1075 358 q 953 449 1075 449 l 378 449 q 236 466 294 449 q 141 515 178 483 q 88 589 104 546 q 71 685 71 632 l 71 742 q 88 838 71 794 q 141 912 104 881 q 236 960 178 943 q 378 978 294 978 l 1206 978 l 1206 833 l 378 833 q 256 743 256 833 l 256 683 q 378 593 256 593 l 953 593 q 1094 576 1036 593 q 1190 527 1153 558 q 1243 453 1226 496 q 1260 357 1260 410 l 1260 236 q 1243 140 1260 183 q 1190 66 1226 97 q 1094 17 1153 35 q 953 0 1036 0 l 103 0 m 565 -333 l 565 -51 l 756 -51 l 756 -135 l 639 -333 l 565 -333 z "},"Š":{"ha":1321,"x_min":71,"x_max":1260,"o":"m 71 0 m 103 0 l 103 144 l 953 144 q 1075 235 1075 144 l 1075 358 q 953 449 1075 449 l 378 449 q 236 466 294 449 q 141 515 178 483 q 88 589 104 546 q 71 685 71 632 l 71 742 q 88 838 71 794 q 141 912 104 881 q 236 960 178 943 q 378 978 294 978 l 1206 978 l 1206 833 l 378 833 q 256 743 256 833 l 256 683 q 378 593 256 593 l 953 593 q 1094 576 1036 593 q 1190 527 1153 558 q 1243 453 1226 496 q 1260 357 1260 410 l 1260 236 q 1243 140 1260 183 q 1190 66 1226 97 q 1094 17 1153 35 q 953 0 1036 0 l 103 0 m 574 1049 l 431 1260 l 583 1260 l 668 1119 l 682 1119 l 767 1260 l 918 1260 l 774 1049 l 574 1049 z "},"š":{"ha":1321,"x_min":71,"x_max":1260,"o":"m 71 0 m 103 0 l 103 144 l 953 144 q 1075 235 1075 144 l 1075 358 q 953 449 1075 449 l 378 449 q 236 466 294 449 q 141 515 178 483 q 88 589 104 546 q 71 685 71 632 l 71 742 q 88 838 71 794 q 141 912 104 881 q 236 960 178 943 q 378 978 294 978 l 1206 978 l 1206 833 l 378 833 q 256 743 256 833 l 256 683 q 378 593 256 593 l 953 593 q 1094 576 1036 593 q 1190 527 1153 558 q 1243 453 1226 496 q 1260 357 1260 410 l 1260 236 q 1243 140 1260 183 q 1190 66 1226 97 q 1094 17 1153 35 q 953 0 1036 0 l 103 0 m 574 1049 l 431 1260 l 583 1260 l 668 1119 l 682 1119 l 767 1260 l 918 1260 l 774 1049 l 574 1049 z "},"Ţ":{"ha":1261,"x_min":32,"x_max":1228,"o":"m 32 0 m 544 0 l 544 833 l 32 833 l 32 978 l 1228 978 l 1228 833 l 729 833 l 729 0 l 544 0 m 535 -333 l 535 -51 l 725 -51 l 725 -135 l 608 -333 l 535 -333 z "},"ţ":{"ha":1261,"x_min":32,"x_max":1228,"o":"m 32 0 m 544 0 l 544 833 l 32 833 l 32 978 l 1228 978 l 1228 833 l 729 833 l 729 0 l 544 0 m 535 -333 l 535 -51 l 725 -51 l 725 -135 l 608 -333 l 535 -333 z "},"Ť":{"ha":1261,"x_min":32,"x_max":1228,"o":"m 32 0 m 544 0 l 544 833 l 32 833 l 32 978 l 1228 978 l 1228 833 l 729 833 l 729 0 l 544 0 m 529 1049 l 386 1260 l 539 1260 l 624 1119 l 638 1119 l 722 1260 l 874 1260 l 729 1049 l 529 1049 z "},"ť":{"ha":1261,"x_min":32,"x_max":1228,"o":"m 32 0 m 544 0 l 544 833 l 32 833 l 32 978 l 1228 978 l 1228 833 l 729 833 l 729 0 l 544 0 m 529 1049 l 386 1260 l 539 1260 l 624 1119 l 638 1119 l 722 1260 l 874 1260 l 729 1049 l 529 1049 z "},"Ŧ":{"ha":1261,"x_min":32,"x_max":1228,"o":"m 544 0 l 544 363 l 315 363 l 315 517 l 544 517 l 544 833 l 32 833 l 32 978 l 1228 978 l 1228 833 l 729 833 l 729 517 l 946 517 l 946 363 l 729 363 l 729 0 l 544 0 z "},"ŧ":{"ha":1261,"x_min":32,"x_max":1228,"o":"m 32 0 m 544 0 l 544 363 l 315 363 l 315 517 l 544 517 l 544 833 l 32 833 l 32 978 l 1228 978 l 1228 833 l 729 833 l 729 517 l 946 517 l 946 363 l 729 363 l 729 0 l 544 0 z "},"Ũ":{"ha":1393,"x_min":86,"x_max":1307,"o":"m 86 0 m 393 0 q 251 17 310 0 q 156 66 193 35 q 103 140 119 97 q 86 236 86 183 l 86 978 l 271 978 l 271 235 q 393 144 271 144 l 1000 144 q 1122 235 1122 144 l 1122 978 l 1307 978 l 1307 236 q 1297 140 1307 183 q 1256 66 1286 97 q 1174 17 1226 35 q 1039 0 1122 0 l 393 0 m 924 1114 q 872 1081 901 1090 q 807 1072 842 1072 q 751 1081 778 1072 q 697 1101 724 1090 q 642 1120 669 1111 q 585 1129 615 1129 q 518 1115 549 1129 q 468 1079 488 1100 l 468 1194 q 520 1226 490 1217 q 585 1236 550 1236 q 642 1227 615 1236 q 697 1207 669 1218 q 751 1187 724 1196 q 807 1178 778 1178 q 874 1192 843 1178 q 924 1228 904 1207 l 924 1114 z "},"ũ":{"ha":1393,"x_min":86,"x_max":1307,"o":"m 86 0 m 393 0 q 251 17 310 0 q 156 66 193 35 q 103 140 119 97 q 86 236 86 183 l 86 978 l 271 978 l 271 235 q 393 144 271 144 l 1000 144 q 1122 235 1122 144 l 1122 978 l 1307 978 l 1307 236 q 1297 140 1307 183 q 1256 66 1286 97 q 1174 17 1226 35 q 1039 0 1122 0 l 393 0 m 924 1114 q 872 1081 901 1090 q 807 1072 842 1072 q 751 1081 778 1072 q 697 1101 724 1090 q 642 1120 669 1111 q 585 1129 615 1129 q 518 1115 549 1129 q 468 1079 488 1100 l 468 1194 q 520 1226 490 1217 q 585 1236 550 1236 q 642 1227 615 1236 q 697 1207 669 1218 q 751 1187 724 1196 q 807 1178 778 1178 q 874 1192 843 1178 q 924 1228 904 1207 l 924 1114 z "},"Ū":{"ha":1393,"x_min":86,"x_max":1307,"o":"m 86 0 m 393 0 q 251 17 310 0 q 156 66 193 35 q 103 140 119 97 q 86 236 86 183 l 86 978 l 271 978 l 271 235 q 393 144 271 144 l 1000 144 q 1122 235 1122 144 l 1122 978 l 1307 978 l 1307 236 q 1297 140 1307 183 q 1256 66 1286 97 q 1174 17 1226 35 q 1039 0 1122 0 l 393 0 m 468 1097 l 468 1213 l 924 1213 l 924 1097 l 468 1097 z "},"ū":{"ha":1393,"x_min":86,"x_max":1307,"o":"m 86 0 m 393 0 q 251 17 310 0 q 156 66 193 35 q 103 140 119 97 q 86 236 86 183 l 86 978 l 271 978 l 271 235 q 393 144 271 144 l 1000 144 q 1122 235 1122 144 l 1122 978 l 1307 978 l 1307 236 q 1297 140 1307 183 q 1256 66 1286 97 q 1174 17 1226 35 q 1039 0 1122 0 l 393 0 m 468 1097 l 468 1213 l 924 1213 l 924 1097 l 468 1097 z "},"Ŭ":{"ha":1393,"x_min":86,"x_max":1307,"o":"m 86 0 m 393 0 q 251 17 310 0 q 156 66 193 35 q 103 140 119 97 q 86 236 86 183 l 86 978 l 271 978 l 271 235 q 393 144 271 144 l 1000 144 q 1122 235 1122 144 l 1122 978 l 1307 978 l 1307 236 q 1297 140 1307 183 q 1256 66 1286 97 q 1174 17 1226 35 q 1039 0 1122 0 l 393 0 m 650 1049 q 558 1072 596 1049 q 497 1127 519 1094 q 463 1196 474 1160 q 453 1260 453 1232 l 606 1260 q 610 1222 606 1244 q 623 1181 614 1200 q 649 1147 632 1161 q 690 1133 665 1133 l 713 1133 q 749 1147 735 1133 q 773 1181 764 1161 q 785 1222 782 1200 q 789 1260 789 1244 l 940 1260 q 930 1196 940 1232 q 897 1127 919 1160 q 836 1072 874 1094 q 744 1049 799 1049 l 650 1049 z "},"ŭ":{"ha":1393,"x_min":86,"x_max":1307,"o":"m 86 0 m 393 0 q 251 17 310 0 q 156 66 193 35 q 103 140 119 97 q 86 236 86 183 l 86 978 l 271 978 l 271 235 q 393 144 271 144 l 1000 144 q 1122 235 1122 144 l 1122 978 l 1307 978 l 1307 236 q 1297 140 1307 183 q 1256 66 1286 97 q 1174 17 1226 35 q 1039 0 1122 0 l 393 0 m 650 1049 q 558 1072 596 1049 q 497 1127 519 1094 q 463 1196 474 1160 q 453 1260 453 1232 l 606 1260 q 610 1222 606 1244 q 623 1181 614 1200 q 649 1147 632 1161 q 690 1133 665 1133 l 713 1133 q 749 1147 735 1133 q 773 1181 764 1161 q 785 1222 782 1200 q 789 1260 789 1244 l 940 1260 q 930 1196 940 1232 q 897 1127 919 1160 q 836 1072 874 1094 q 744 1049 799 1049 l 650 1049 z "},"Ů":{"ha":1393,"x_min":86,"x_max":1307,"o":"m 86 0 m 393 0 q 251 17 310 0 q 156 66 193 35 q 103 140 119 97 q 86 236 86 183 l 86 978 l 271 978 l 271 235 q 393 144 271 144 l 1000 144 q 1122 235 1122 144 l 1122 978 l 1307 978 l 1307 236 q 1297 140 1307 183 q 1256 66 1286 97 q 1174 17 1226 35 q 1039 0 1122 0 l 393 0 m 811 1206 q 767 1250 811 1250 l 622 1250 q 579 1206 579 1250 l 579 1171 q 622 1126 579 1126 l 767 1126 q 811 1171 811 1126 l 811 1206 m 917 1169 q 757 1049 917 1049 l 632 1049 q 475 1169 475 1049 l 475 1207 q 632 1329 475 1329 l 757 1329 q 917 1207 917 1329 l 917 1169 z "},"ů":{"ha":1393,"x_min":86,"x_max":1307,"o":"m 86 0 m 393 0 q 251 17 310 0 q 156 66 193 35 q 103 140 119 97 q 86 236 86 183 l 86 978 l 271 978 l 271 235 q 393 144 271 144 l 1000 144 q 1122 235 1122 144 l 1122 978 l 1307 978 l 1307 236 q 1297 140 1307 183 q 1256 66 1286 97 q 1174 17 1226 35 q 1039 0 1122 0 l 393 0 m 811 1206 q 767 1250 811 1250 l 622 1250 q 579 1206 579 1250 l 579 1171 q 622 1126 579 1126 l 767 1126 q 811 1171 811 1126 l 811 1206 m 917 1169 q 757 1049 917 1049 l 632 1049 q 475 1169 475 1049 l 475 1207 q 632 1329 475 1329 l 757 1329 q 917 1207 917 1329 l 917 1169 z "},"Ű":{"ha":1393,"x_min":86,"x_max":1307,"o":"m 86 0 m 393 0 q 251 17 310 0 q 156 66 193 35 q 103 140 119 97 q 86 236 86 183 l 86 978 l 271 978 l 271 235 q 393 144 271 144 l 1000 144 q 1122 235 1122 144 l 1122 978 l 1307 978 l 1307 236 q 1297 140 1307 183 q 1256 66 1286 97 q 1174 17 1226 35 q 1039 0 1122 0 l 393 0 m 750 1063 l 826 1260 l 1017 1260 l 865 1063 l 750 1063 m 472 1063 l 546 1260 l 739 1260 l 586 1063 l 472 1063 z "},"ű":{"ha":1393,"x_min":86,"x_max":1307,"o":"m 86 0 m 393 0 q 251 17 310 0 q 156 66 193 35 q 103 140 119 97 q 86 236 86 183 l 86 978 l 271 978 l 271 235 q 393 144 271 144 l 1000 144 q 1122 235 1122 144 l 1122 978 l 1307 978 l 1307 236 q 1297 140 1307 183 q 1256 66 1286 97 q 1174 17 1226 35 q 1039 0 1122 0 l 393 0 m 750 1063 l 826 1260 l 1017 1260 l 865 1063 l 750 1063 m 472 1063 l 546 1260 l 739 1260 l 586 1063 l 472 1063 z "},"Ų":{"ha":1393,"x_min":86,"x_max":1307,"o":"m 676 -312 q 579 -279 613 -312 q 546 -201 546 -246 q 563 -137 546 -169 q 614 -81 579 -106 l 724 0 l 393 0 q 251 17 310 0 q 156 66 193 35 q 103 140 119 97 q 86 236 86 183 l 86 978 l 271 978 l 271 235 q 393 144 271 144 l 1000 144 q 1122 235 1122 144 l 1122 978 l 1307 978 l 1307 236 q 1297 140 1307 183 q 1256 66 1286 97 q 1174 17 1226 35 q 1039 0 1122 0 l 847 0 l 686 -117 q 672 -144 672 -126 q 678 -161 672 -154 q 700 -168 685 -168 l 847 -168 l 847 -312 l 676 -312 z "},"ų":{"ha":1393,"x_min":86,"x_max":1307,"o":"m 86 0 m 676 -312 q 579 -279 613 -312 q 546 -201 546 -246 q 563 -137 546 -169 q 614 -81 579 -106 l 724 0 l 393 0 q 251 17 310 0 q 156 66 193 35 q 103 140 119 97 q 86 236 86 183 l 86 978 l 271 978 l 271 235 q 393 144 271 144 l 1000 144 q 1122 235 1122 144 l 1122 978 l 1307 978 l 1307 236 q 1297 140 1307 183 q 1256 66 1286 97 q 1174 17 1226 35 q 1039 0 1122 0 l 847 0 l 686 -117 q 672 -144 672 -126 q 678 -161 672 -154 q 700 -168 685 -168 l 847 -168 l 847 -312 l 676 -312 z "},"Ŵ":{"ha":1860,"x_min":0,"x_max":1860,"o":"m 0 0 m 1269 0 l 931 750 l 585 0 l 450 0 l 0 978 l 178 978 l 518 228 l 861 978 l 999 978 l 1338 228 l 1681 978 l 1860 978 l 1408 0 l 1269 0 m 1022 1049 l 936 1189 l 922 1189 l 839 1049 l 686 1049 l 831 1260 l 1031 1260 l 1174 1049 l 1022 1049 z "},"ŵ":{"ha":1860,"x_min":0,"x_max":1860,"o":"m 0 0 m 1269 0 l 931 750 l 585 0 l 450 0 l 0 978 l 178 978 l 518 228 l 861 978 l 999 978 l 1338 228 l 1681 978 l 1860 978 l 1408 0 l 1269 0 m 1022 1049 l 936 1189 l 922 1189 l 839 1049 l 686 1049 l 831 1260 l 1031 1260 l 1174 1049 l 1022 1049 z "},"Ŷ":{"ha":1436,"x_min":0,"x_max":1436,"o":"m 0 0 m 628 0 l 628 397 l 0 978 l 236 978 l 719 531 l 1203 978 l 1436 978 l 813 397 l 813 0 l 628 0 m 811 1049 l 725 1189 l 711 1189 l 628 1049 l 475 1049 l 619 1260 l 819 1260 l 963 1049 l 811 1049 z "},"ŷ":{"ha":1436,"x_min":0,"x_max":1436,"o":"m 0 0 m 628 0 l 628 397 l 0 978 l 236 978 l 719 531 l 1203 978 l 1436 978 l 813 397 l 813 0 l 628 0 m 811 1049 l 725 1189 l 711 1189 l 628 1049 l 475 1049 l 619 1260 l 819 1260 l 963 1049 l 811 1049 z "},"Ÿ":{"ha":1436,"x_min":0,"x_max":1436,"o":"m 0 0 m 628 0 l 628 397 l 0 978 l 236 978 l 719 531 l 1203 978 l 1436 978 l 813 397 l 813 0 l 628 0 m 433 1094 l 433 1275 l 624 1275 l 624 1094 l 433 1094 m 811 1094 l 811 1275 l 1001 1275 l 1001 1094 l 811 1094 z "},"Ź":{"ha":1432,"x_min":67,"x_max":1381,"o":"m 67 0 m 67 0 l 67 125 l 1056 819 l 67 819 l 67 978 l 1381 978 l 1381 853 l 388 158 l 1381 158 l 1381 0 l 67 0 m 531 1049 l 531 1164 l 985 1260 l 985 1103 l 531 1049 z "},"ź":{"ha":1432,"x_min":67,"x_max":1381,"o":"m 67 0 m 67 0 l 67 125 l 1056 819 l 67 819 l 67 978 l 1381 978 l 1381 853 l 388 158 l 1381 158 l 1381 0 l 67 0 m 531 1049 l 531 1164 l 985 1260 l 985 1103 l 531 1049 z "},"Ż":{"ha":1432,"x_min":67,"x_max":1381,"o":"m 67 0 m 67 0 l 67 125 l 1056 819 l 67 819 l 67 978 l 1381 978 l 1381 853 l 388 158 l 1381 158 l 1381 0 l 67 0 m 621 1094 l 621 1275 l 811 1275 l 811 1094 l 621 1094 z "},"ż":{"ha":1432,"x_min":67,"x_max":1381,"o":"m 67 0 m 67 0 l 67 125 l 1056 819 l 67 819 l 67 978 l 1381 978 l 1381 853 l 388 158 l 1381 158 l 1381 0 l 67 0 m 621 1094 l 621 1275 l 811 1275 l 811 1094 l 621 1094 z "},"Ž":{"ha":1432,"x_min":67,"x_max":1381,"o":"m 67 0 m 67 0 l 67 125 l 1056 819 l 67 819 l 67 978 l 1381 978 l 1381 853 l 388 158 l 1381 158 l 1381 0 l 67 0 m 601 1049 l 458 1260 l 611 1260 l 696 1119 l 710 1119 l 794 1260 l 946 1260 l 801 1049 l 601 1049 z "},"ž":{"ha":1432,"x_min":67,"x_max":1381,"o":"m 67 0 m 67 0 l 67 125 l 1056 819 l 67 819 l 67 978 l 1381 978 l 1381 853 l 388 158 l 1381 158 l 1381 0 l 67 0 m 601 1049 l 458 1260 l 611 1260 l 696 1119 l 710 1119 l 794 1260 l 946 1260 l 801 1049 l 601 1049 z "},"ƒ":{"ha":1447,"x_min":10,"x_max":1440,"o":"m 1242 0 l 1063 278 l 388 278 l 208 0 l 10 0 l 660 978 l 794 978 l 1440 0 l 1242 0 m 728 799 l 483 422 l 969 422 l 728 799 z "},"Ș":{"ha":1321,"x_min":71,"x_max":1260,"o":"m 71 0 m 103 0 l 103 144 l 953 144 q 1075 235 1075 144 l 1075 358 q 953 449 1075 449 l 378 449 q 236 466 294 449 q 141 515 178 483 q 88 589 104 546 q 71 685 71 632 l 71 742 q 88 838 71 794 q 141 912 104 881 q 236 960 178 943 q 378 978 294 978 l 1206 978 l 1206 833 l 378 833 q 256 743 256 833 l 256 683 q 378 593 256 593 l 953 593 q 1094 576 1036 593 q 1190 527 1153 558 q 1243 453 1226 496 q 1260 357 1260 410 l 1260 236 q 1243 140 1260 183 q 1190 66 1226 97 q 1094 17 1153 35 q 953 0 1036 0 l 103 0 m 565 -333 l 565 -51 l 756 -51 l 756 -135 l 639 -333 l 565 -333 z "},"ș":{"ha":1321,"x_min":71,"x_max":1260,"o":"m 71 0 m 103 0 l 103 144 l 953 144 q 1075 235 1075 144 l 1075 358 q 953 449 1075 449 l 378 449 q 236 466 294 449 q 141 515 178 483 q 88 589 104 546 q 71 685 71 632 l 71 742 q 88 838 71 794 q 141 912 104 881 q 236 960 178 943 q 378 978 294 978 l 1206 978 l 1206 833 l 378 833 q 256 743 256 833 l 256 683 q 378 593 256 593 l 953 593 q 1094 576 1036 593 q 1190 527 1153 558 q 1243 453 1226 496 q 1260 357 1260 410 l 1260 236 q 1243 140 1260 183 q 1190 66 1226 97 q 1094 17 1153 35 q 953 0 1036 0 l 103 0 m 565 -333 l 565 -51 l 756 -51 l 756 -135 l 639 -333 l 565 -333 z "},"Ț":{"ha":1261,"x_min":32,"x_max":1228,"o":"m 32 0 m 544 0 l 544 833 l 32 833 l 32 978 l 1228 978 l 1228 833 l 729 833 l 729 0 l 544 0 m 535 -333 l 535 -51 l 725 -51 l 725 -135 l 608 -333 l 535 -333 z "},"ț":{"ha":1261,"x_min":32,"x_max":1228,"o":"m 32 0 m 544 0 l 544 833 l 32 833 l 32 978 l 1228 978 l 1228 833 l 729 833 l 729 0 l 544 0 m 535 -333 l 535 -51 l 725 -51 l 725 -135 l 608 -333 l 535 -333 z "},"ˆ":{"ha":626,"x_min":69,"x_max":557,"o":"m 406 1049 l 319 1189 l 306 1189 l 222 1049 l 69 1049 l 214 1260 l 414 1260 l 557 1049 l 406 1049 z "},"ˇ":{"ha":626,"x_min":69,"x_max":557,"o":"m 213 1049 l 69 1260 l 222 1260 l 307 1119 l 321 1119 l 406 1260 l 557 1260 l 413 1049 l 213 1049 z "},"˘":{"ha":626,"x_min":69,"x_max":557,"o":"m 267 1049 q 174 1072 213 1049 q 113 1127 136 1094 q 80 1196 90 1160 q 69 1260 69 1232 l 222 1260 q 226 1222 222 1244 q 240 1181 231 1200 q 265 1147 249 1161 q 307 1133 282 1133 l 329 1133 q 366 1147 351 1133 q 390 1181 381 1161 q 402 1222 399 1200 q 406 1260 406 1244 l 557 1260 q 547 1196 557 1232 q 513 1127 536 1160 q 453 1072 490 1094 q 361 1049 415 1049 l 267 1049 z "},"˙":{"ha":329,"x_min":69,"x_max":260,"o":"m 69 1094 l 69 1275 l 260 1275 l 260 1094 l 69 1094 z "},"˚":{"ha":581,"x_min":69,"x_max":511,"o":"m 406 1206 q 361 1250 406 1250 l 217 1250 q 174 1206 174 1250 l 174 1171 q 217 1126 174 1126 l 361 1126 q 406 1171 406 1126 l 406 1206 m 511 1169 q 351 1049 511 1049 l 226 1049 q 69 1169 69 1049 l 69 1207 q 226 1329 69 1329 l 351 1329 q 511 1207 511 1329 l 511 1169 z "},"˛":{"ha":349,"x_min":47,"x_max":349,"o":"m 178 -312 q 81 -279 114 -312 q 47 -201 47 -246 q 64 -137 47 -169 q 115 -81 81 -106 l 225 0 l 349 0 l 188 -117 q 174 -144 174 -126 q 180 -161 174 -154 q 201 -168 186 -168 l 349 -168 l 349 -312 l 178 -312 z "},"˜":{"ha":594,"x_min":69,"x_max":525,"o":"m 525 1114 q 473 1081 503 1090 q 408 1072 443 1072 q 352 1081 379 1072 q 298 1101 325 1090 q 244 1120 271 1111 q 186 1129 217 1129 q 119 1115 150 1129 q 69 1079 89 1100 l 69 1194 q 122 1226 92 1217 q 186 1236 151 1236 q 244 1227 217 1236 q 298 1207 271 1218 q 352 1187 325 1196 q 408 1178 379 1178 q 475 1192 444 1178 q 525 1228 506 1207 l 525 1114 z "},"˝":{"ha":683,"x_min":69,"x_max":614,"o":"m 347 1063 l 424 1260 l 614 1260 l 463 1063 l 347 1063 m 69 1063 l 143 1260 l 336 1260 l 183 1063 l 69 1063 z "},"̦":{"ha":329,"x_min":69,"x_max":260,"o":"m 69 -333 l 69 -51 l 260 -51 l 260 -135 l 143 -333 l 69 -333 z "},"Ẁ":{"ha":1860,"x_min":0,"x_max":1860,"o":"m 0 0 m 1269 0 l 931 750 l 585 0 l 450 0 l 0 978 l 178 978 l 518 228 l 861 978 l 999 978 l 1338 228 l 1681 978 l 1860 978 l 1408 0 l 1269 0 m 660 1103 l 660 1260 l 1115 1164 l 1115 1049 l 660 1103 z "},"ẁ":{"ha":1860,"x_min":0,"x_max":1860,"o":"m 0 0 m 1269 0 l 931 750 l 585 0 l 450 0 l 0 978 l 178 978 l 518 228 l 861 978 l 999 978 l 1338 228 l 1681 978 l 1860 978 l 1408 0 l 1269 0 m 660 1103 l 660 1260 l 1115 1164 l 1115 1049 l 660 1103 z "},"Ẃ":{"ha":1860,"x_min":0,"x_max":1860,"o":"m 0 0 m 1269 0 l 931 750 l 585 0 l 450 0 l 0 978 l 178 978 l 518 228 l 861 978 l 999 978 l 1338 228 l 1681 978 l 1860 978 l 1408 0 l 1269 0 m 744 1049 l 744 1164 l 1199 1260 l 1199 1103 l 744 1049 z "},"ẃ":{"ha":1860,"x_min":0,"x_max":1860,"o":"m 0 0 m 1269 0 l 931 750 l 585 0 l 450 0 l 0 978 l 178 978 l 518 228 l 861 978 l 999 978 l 1338 228 l 1681 978 l 1860 978 l 1408 0 l 1269 0 m 744 1049 l 744 1164 l 1199 1260 l 1199 1103 l 744 1049 z "},"Ẅ":{"ha":1860,"x_min":0,"x_max":1860,"o":"m 0 0 m 1269 0 l 931 750 l 585 0 l 450 0 l 0 978 l 178 978 l 518 228 l 861 978 l 999 978 l 1338 228 l 1681 978 l 1860 978 l 1408 0 l 1269 0 m 646 1094 l 646 1275 l 836 1275 l 836 1094 l 646 1094 m 1024 1094 l 1024 1275 l 1214 1275 l 1214 1094 l 1024 1094 z "},"ẅ":{"ha":1860,"x_min":0,"x_max":1860,"o":"m 0 0 m 1269 0 l 931 750 l 585 0 l 450 0 l 0 978 l 178 978 l 518 228 l 861 978 l 999 978 l 1338 228 l 1681 978 l 1860 978 l 1408 0 l 1269 0 m 646 1094 l 646 1275 l 836 1275 l 836 1094 l 646 1094 m 1024 1094 l 1024 1275 l 1214 1275 l 1214 1094 l 1024 1094 z "},"Ỳ":{"ha":1436,"x_min":0,"x_max":1436,"o":"m 0 0 m 628 0 l 628 397 l 0 978 l 236 978 l 719 531 l 1203 978 l 1436 978 l 813 397 l 813 0 l 628 0 m 449 1103 l 449 1260 l 904 1164 l 904 1049 l 449 1103 z "},"ỳ":{"ha":1436,"x_min":0,"x_max":1436,"o":"m 0 0 m 628 0 l 628 397 l 0 978 l 236 978 l 719 531 l 1203 978 l 1436 978 l 813 397 l 813 0 l 628 0 m 449 1103 l 449 1260 l 904 1164 l 904 1049 l 449 1103 z "},"–":{"ha":951,"x_min":29,"x_max":921,"o":"m 29 446 l 29 600 l 921 600 l 921 446 l 29 446 z "},"—":{"ha":1647,"x_min":29,"x_max":1617,"o":"m 29 446 l 29 600 l 1617 600 l 1617 446 l 29 446 z "},"‘":{"ha":368,"x_min":83,"x_max":274,"o":"m 200 696 l 83 894 l 83 978 l 274 978 l 274 696 l 200 696 z "},"’":{"ha":368,"x_min":83,"x_max":274,"o":"m 83 696 l 83 978 l 274 978 l 274 894 l 157 696 l 83 696 z "},"‚":{"ha":368,"x_min":83,"x_max":274,"o":"m 83 -101 l 83 181 l 274 181 l 274 97 l 157 -101 l 83 -101 z "},"“":{"ha":632,"x_min":83,"x_max":538,"o":"m 464 696 l 347 894 l 347 978 l 538 978 l 538 696 l 464 696 m 200 696 l 83 894 l 83 978 l 274 978 l 274 696 l 200 696 z "},"”":{"ha":632,"x_min":83,"x_max":538,"o":"m 83 696 l 83 978 l 274 978 l 274 894 l 157 696 l 83 696 m 347 696 l 347 978 l 538 978 l 538 894 l 421 696 l 347 696 z "},"„":{"ha":632,"x_min":83,"x_max":538,"o":"m 83 -101 l 83 181 l 274 181 l 274 97 l 157 -101 l 83 -101 m 347 -101 l 347 181 l 538 181 l 538 97 l 421 -101 l 347 -101 z "},"†":{"ha":600,"x_min":83,"x_max":506,"o":"m 246 0 l 246 649 l 83 649 l 83 746 l 246 746 l 246 978 l 343 978 l 343 746 l 506 746 l 506 649 l 343 649 l 343 0 l 246 0 z "},"‡":{"ha":600,"x_min":83,"x_max":506,"o":"m 246 0 l 246 232 l 83 232 l 83 329 l 246 329 l 246 649 l 83 649 l 83 746 l 246 746 l 246 978 l 343 978 l 343 746 l 506 746 l 506 649 l 343 649 l 343 329 l 506 329 l 506 232 l 343 232 l 343 0 l 246 0 z "},"•":{"ha":517,"x_min":83,"x_max":440,"o":"m 440 496 q 426 426 440 458 q 388 369 413 393 q 331 332 364 346 q 261 318 299 318 q 191 332 224 318 q 135 369 158 346 q 97 426 111 393 q 83 496 83 458 q 97 566 83 533 q 135 623 111 599 q 191 661 158 647 q 261 675 224 675 q 331 661 299 675 q 388 623 364 647 q 426 566 413 599 q 440 496 440 533 z "},"…":{"ha":1979,"x_min":83,"x_max":1885,"o":"m 83 0 m 83 0 l 83 181 l 301 181 l 301 0 l 83 0 m 875 0 l 875 181 l 1093 181 l 1093 0 l 875 0 m 1667 0 l 1667 181 l 1885 181 l 1885 0 l 1667 0 z "},"‰":{"ha":2011,"x_min":83,"x_max":1928,"o":"m 83 0 m 236 503 q 118 535 153 503 q 83 621 83 568 l 83 874 q 118 959 83 926 q 236 992 153 992 l 467 992 q 585 959 550 992 q 619 874 619 926 l 619 621 q 585 535 619 568 q 467 503 550 503 l 236 503 m 528 874 q 467 919 528 919 l 236 919 q 175 874 175 919 l 175 619 q 236 575 175 575 l 467 575 q 528 619 528 575 l 528 874 m 136 -42 l 1140 1033 l 1256 1033 l 250 -42 l 136 -42 m 925 -14 q 807 19 842 -14 q 772 104 772 51 l 772 357 q 807 442 772 410 q 925 475 842 475 l 1156 475 q 1274 442 1239 475 q 1308 357 1308 410 l 1308 104 q 1274 19 1308 51 q 1156 -14 1239 -14 l 925 -14 m 1217 357 q 1156 403 1217 403 l 925 403 q 864 357 864 403 l 864 103 q 925 58 864 58 l 1156 58 q 1217 103 1217 58 l 1217 357 m 1544 -14 q 1426 19 1461 -14 q 1392 104 1392 51 l 1392 357 q 1426 442 1392 410 q 1544 475 1461 475 l 1775 475 q 1893 442 1858 475 q 1928 357 1928 410 l 1928 104 q 1893 19 1928 51 q 1775 -14 1858 -14 l 1544 -14 m 1836 357 q 1775 403 1836 403 l 1544 403 q 1483 357 1483 403 l 1483 103 q 1544 58 1483 58 l 1775 58 q 1836 103 1836 58 l 1836 357 z "},"‹":{"ha":475,"x_min":72,"x_max":403,"o":"m 72 460 l 72 551 l 403 742 l 403 622 l 193 504 l 403 385 l 403 267 l 72 460 z "},"›":{"ha":475,"x_min":72,"x_max":403,"o":"m 72 267 l 72 385 l 282 504 l 72 622 l 72 742 l 403 551 l 403 460 l 72 267 z "},"⁄":{"ha":306,"x_min":-407,"x_max":713,"o":"m -407 -42 l 597 1033 l 713 1033 l -293 -42 l -407 -42 z "},"⁰":{"ha":661,"x_min":63,"x_max":599,"o":"m 63 503 m 215 503 q 97 535 132 503 q 63 621 63 568 l 63 874 q 97 959 63 926 q 215 992 132 992 l 446 992 q 564 959 529 992 q 599 874 599 926 l 599 621 q 564 535 599 568 q 446 503 529 503 l 215 503 m 507 874 q 446 919 507 919 l 215 919 q 154 874 154 919 l 154 619 q 215 575 154 575 l 446 575 q 507 619 507 575 l 507 874 z "},"⁴":{"ha":653,"x_min":32,"x_max":617,"o":"m 32 503 m 472 503 l 472 586 l 32 586 l 32 644 l 290 992 l 390 992 l 142 658 l 472 658 l 472 992 l 565 992 l 565 658 l 617 658 l 617 586 l 565 586 l 565 503 l 472 503 z "},"⁵":{"ha":621,"x_min":63,"x_max":565,"o":"m 63 503 m 63 503 l 63 575 l 413 575 q 474 619 474 575 l 474 707 q 413 753 474 753 l 63 753 l 63 992 l 550 992 l 550 919 l 156 919 l 156 825 l 413 825 q 531 792 496 825 q 565 707 565 760 l 565 621 q 531 535 565 568 q 413 503 496 503 l 63 503 z "},"⁶":{"ha":676,"x_min":63,"x_max":617,"o":"m 63 503 m 215 503 q 97 535 132 503 q 63 621 63 568 l 63 874 q 97 959 63 926 q 215 992 132 992 l 593 992 l 593 919 l 215 919 q 154 874 154 919 l 154 818 l 463 818 q 581 785 546 818 q 617 700 617 753 l 617 621 q 581 535 617 568 q 463 503 546 503 l 215 503 m 524 700 q 463 746 524 746 l 154 746 l 154 619 q 215 575 154 575 l 463 575 q 524 619 524 575 l 524 700 z "},"⁷":{"ha":625,"x_min":43,"x_max":590,"o":"m 43 503 m 160 503 l 486 919 l 43 919 l 43 992 l 590 992 l 590 933 l 265 503 l 160 503 z "},"⁸":{"ha":681,"x_min":63,"x_max":618,"o":"m 63 503 m 217 503 q 142 511 171 503 q 94 534 113 519 q 69 568 76 549 q 63 608 63 588 l 63 688 q 81 742 63 724 q 126 768 99 761 q 84 795 100 774 q 68 849 68 817 l 68 886 q 102 963 68 935 q 218 992 136 992 l 463 992 q 578 963 544 992 q 613 886 613 935 l 613 849 q 597 795 613 817 q 554 768 581 774 q 600 742 582 761 q 618 688 618 724 l 618 608 q 611 568 618 588 q 586 534 604 549 q 539 511 568 519 q 464 503 510 503 l 217 503 m 526 686 q 509 719 526 710 q 464 728 492 728 l 217 728 q 172 719 189 728 q 154 686 154 710 l 154 625 q 172 585 154 596 q 217 575 189 575 l 464 575 q 509 585 492 575 q 526 625 526 596 l 526 686 m 519 881 q 507 910 519 901 q 463 919 494 919 l 218 919 q 174 910 186 919 q 161 881 161 901 l 161 839 q 174 809 161 818 q 218 800 186 800 l 463 800 q 507 809 494 800 q 519 839 519 818 l 519 881 z "},"⁹":{"ha":679,"x_min":63,"x_max":617,"o":"m 63 503 m 89 503 l 89 575 l 463 575 q 524 619 524 575 l 524 689 l 215 689 q 97 722 132 689 q 63 807 63 754 l 63 874 q 97 959 63 926 q 215 992 132 992 l 463 992 q 581 959 546 992 q 617 874 617 926 l 617 621 q 581 535 617 568 q 463 503 546 503 l 89 503 m 524 874 q 463 919 524 919 l 215 919 q 154 874 154 919 l 154 806 q 215 761 154 761 l 524 761 l 524 874 z "},"₀":{"ha":661,"x_min":63,"x_max":599,"o":"m 215 -14 q 97 19 132 -14 q 63 104 63 51 l 63 357 q 97 442 63 410 q 215 475 132 475 l 446 475 q 564 442 529 475 q 599 357 599 410 l 599 104 q 564 19 599 51 q 446 -14 529 -14 l 215 -14 m 507 357 q 446 403 507 403 l 215 403 q 154 357 154 403 l 154 103 q 215 58 154 58 l 446 58 q 507 103 507 58 l 507 357 z "},"₁":{"ha":314,"x_min":24,"x_max":247,"o":"m 156 -14 l 156 406 l 121 367 l 24 367 l 119 475 l 247 475 l 247 -14 l 156 -14 z "},"₂":{"ha":624,"x_min":57,"x_max":563,"o":"m 57 -14 l 57 164 q 92 249 57 217 q 211 282 128 282 l 410 282 q 471 328 471 282 l 471 357 q 410 403 471 403 l 83 403 l 83 475 l 410 475 q 528 442 493 475 q 563 357 563 410 l 563 328 q 528 242 563 275 q 410 210 493 210 l 211 210 q 150 165 150 210 l 150 58 l 563 58 l 563 -14 l 57 -14 z "},"₃":{"ha":603,"x_min":58,"x_max":540,"o":"m 58 -14 l 58 58 l 386 58 q 431 69 414 58 q 449 108 449 79 l 449 169 q 431 202 449 193 q 386 211 414 211 l 79 211 l 79 283 l 385 283 q 429 292 417 283 q 442 322 442 301 l 442 364 q 429 394 442 385 q 385 403 417 403 l 58 403 l 58 475 l 385 475 q 501 447 467 475 q 535 369 535 418 l 535 332 q 519 278 535 300 q 476 251 503 257 q 522 226 504 244 q 540 171 540 207 l 540 92 q 533 51 540 71 q 508 17 526 32 q 461 -6 490 3 q 386 -14 432 -14 l 58 -14 z "},"₄":{"ha":653,"x_min":32,"x_max":617,"o":"m 472 -14 l 472 69 l 32 69 l 32 128 l 290 475 l 390 475 l 142 142 l 472 142 l 472 475 l 565 475 l 565 142 l 617 142 l 617 69 l 565 69 l 565 -14 l 472 -14 z "},"₅":{"ha":621,"x_min":63,"x_max":565,"o":"m 63 -14 l 63 58 l 413 58 q 474 103 474 58 l 474 190 q 413 236 474 236 l 63 236 l 63 475 l 550 475 l 550 403 l 156 403 l 156 308 l 413 308 q 531 276 496 308 q 565 190 565 243 l 565 104 q 531 19 565 51 q 413 -14 496 -14 l 63 -14 z "},"₆":{"ha":676,"x_min":63,"x_max":617,"o":"m 215 -14 q 97 19 132 -14 q 63 104 63 51 l 63 357 q 97 442 63 410 q 215 475 132 475 l 593 475 l 593 403 l 215 403 q 154 357 154 403 l 154 301 l 463 301 q 581 269 546 301 q 617 183 617 236 l 617 104 q 581 19 617 51 q 463 -14 546 -14 l 215 -14 m 524 183 q 463 229 524 229 l 154 229 l 154 103 q 215 58 154 58 l 463 58 q 524 103 524 58 l 524 183 z "},"₇":{"ha":625,"x_min":43,"x_max":590,"o":"m 160 -14 l 486 403 l 43 403 l 43 475 l 590 475 l 590 417 l 265 -14 l 160 -14 z "},"₈":{"ha":681,"x_min":63,"x_max":618,"o":"m 217 -14 q 142 -6 171 -14 q 94 17 113 3 q 69 51 76 32 q 63 92 63 71 l 63 171 q 81 226 63 207 q 126 251 99 244 q 84 278 100 257 q 68 332 68 300 l 68 369 q 102 447 68 418 q 218 475 136 475 l 463 475 q 578 447 544 475 q 613 369 613 418 l 613 332 q 597 278 613 300 q 554 251 581 257 q 600 226 582 244 q 618 171 618 207 l 618 92 q 611 51 618 71 q 586 17 604 32 q 539 -6 568 3 q 464 -14 510 -14 l 217 -14 m 526 169 q 509 202 526 193 q 464 211 492 211 l 217 211 q 172 202 189 211 q 154 169 154 193 l 154 108 q 172 69 154 79 q 217 58 189 58 l 464 58 q 509 69 492 58 q 526 108 526 79 l 526 169 m 519 364 q 507 394 519 385 q 463 403 494 403 l 218 403 q 174 394 186 403 q 161 364 161 385 l 161 322 q 174 292 161 301 q 218 283 186 283 l 463 283 q 507 292 494 283 q 519 322 519 301 l 519 364 z "},"₉":{"ha":679,"x_min":63,"x_max":617,"o":"m 89 -14 l 89 58 l 463 58 q 524 103 524 58 l 524 172 l 215 172 q 97 205 132 172 q 63 290 63 238 l 63 357 q 97 442 63 410 q 215 475 132 475 l 463 475 q 581 442 546 475 q 617 357 617 410 l 617 104 q 581 19 617 51 q 463 -14 546 -14 l 89 -14 m 524 357 q 463 403 524 403 l 215 403 q 154 357 154 403 l 154 289 q 215 244 154 244 l 524 244 l 524 357 z "},"€":{"ha":1044,"x_min":10,"x_max":976,"o":"m 489 0 q 140 211 140 0 l 140 306 l 10 306 l 38 436 l 140 436 l 140 542 l 10 542 l 38 672 l 140 672 l 140 767 q 489 978 140 978 l 976 978 l 910 833 l 489 833 q 325 767 325 833 l 325 672 l 836 672 l 776 542 l 325 542 l 325 436 l 728 436 l 668 306 l 325 306 l 325 211 q 489 144 325 144 l 974 144 l 974 0 l 489 0 z "},"™":{"ha":888,"x_min":68,"x_max":797,"o":"m 178 511 l 178 878 l 68 878 l 68 978 l 376 978 l 376 878 l 268 878 l 268 511 l 178 511 m 706 511 l 706 686 l 610 511 l 511 685 l 511 511 l 422 511 l 422 978 l 504 978 l 610 717 l 715 978 l 797 978 l 797 511 l 706 511 z "},"⅓":{"ha":1419,"x_min":83,"x_max":1336,"o":"m 83 0 m 360 503 l 360 922 l 325 883 l 228 883 l 324 992 l 451 992 l 451 503 l 360 503 m 83 -42 l 1088 1033 l 1203 1033 l 197 -42 l 83 -42 m 854 -14 l 854 58 l 1182 58 q 1227 69 1210 58 q 1244 108 1244 79 l 1244 169 q 1227 202 1244 193 q 1182 211 1210 211 l 875 211 l 875 283 l 1181 283 q 1225 292 1213 283 q 1238 322 1238 301 l 1238 364 q 1225 394 1238 385 q 1181 403 1213 403 l 854 403 l 854 475 l 1181 475 q 1297 447 1263 475 q 1331 369 1331 418 l 1331 332 q 1315 278 1331 300 q 1272 251 1299 257 q 1318 226 1300 244 q 1336 171 1336 207 l 1336 92 q 1329 51 1336 71 q 1304 17 1322 32 q 1257 -6 1286 3 q 1182 -14 1228 -14 l 854 -14 z "},"⅔":{"ha":1385,"x_min":83,"x_max":1301,"o":"m 83 0 m 83 503 l 83 681 q 119 766 83 733 q 238 799 154 799 l 436 799 q 497 844 497 799 l 497 874 q 436 919 497 919 l 110 919 l 110 992 l 436 992 q 554 959 519 992 q 589 874 589 926 l 589 844 q 554 759 589 792 q 436 726 519 726 l 238 726 q 176 682 176 726 l 176 575 l 589 575 l 589 503 l 83 503 m 132 -42 l 1136 1033 l 1251 1033 l 246 -42 l 132 -42 m 819 -14 l 819 58 l 1147 58 q 1192 69 1175 58 q 1210 108 1210 79 l 1210 169 q 1192 202 1210 193 q 1147 211 1175 211 l 840 211 l 840 283 l 1146 283 q 1190 292 1178 283 q 1203 322 1203 301 l 1203 364 q 1190 394 1203 385 q 1146 403 1178 403 l 819 403 l 819 475 l 1146 475 q 1262 447 1228 475 q 1296 369 1296 418 l 1296 332 q 1280 278 1296 300 q 1238 251 1264 257 q 1283 226 1265 244 q 1301 171 1301 207 l 1301 92 q 1294 51 1301 71 q 1269 17 1288 32 q 1222 -6 1251 3 q 1147 -14 1193 -14 l 819 -14 z "},"⅛":{"ha":1469,"x_min":83,"x_max":1386,"o":"m 83 0 m 360 503 l 360 922 l 325 883 l 228 883 l 324 992 l 451 992 l 451 503 l 360 503 m 83 -42 l 1088 1033 l 1203 1033 l 197 -42 l 83 -42 m 985 -14 q 910 -6 939 -14 q 863 17 881 3 q 838 51 844 32 q 831 92 831 71 l 831 171 q 849 226 831 207 q 894 251 867 244 q 852 278 868 257 q 836 332 836 300 l 836 369 q 870 447 836 418 q 986 475 904 475 l 1231 475 q 1347 447 1313 475 q 1381 369 1381 418 l 1381 332 q 1365 278 1381 300 q 1322 251 1349 257 q 1368 226 1350 244 q 1386 171 1386 207 l 1386 92 q 1379 51 1386 71 q 1354 17 1372 32 q 1307 -6 1336 3 q 1232 -14 1278 -14 l 985 -14 m 1294 169 q 1277 202 1294 193 q 1232 211 1260 211 l 985 211 q 940 202 957 211 q 922 169 922 193 l 922 108 q 940 69 922 79 q 985 58 957 58 l 1232 58 q 1277 69 1260 58 q 1294 108 1294 79 l 1294 169 m 1288 364 q 1275 394 1288 385 q 1231 403 1263 403 l 986 403 q 942 394 954 403 q 929 364 929 385 l 929 322 q 942 292 929 301 q 986 283 954 283 l 1231 283 q 1275 292 1263 283 q 1288 322 1288 301 l 1288 364 z "},"⅜":{"ha":1413,"x_min":83,"x_max":1329,"o":"m 83 0 m 83 503 l 83 575 l 411 575 q 456 585 439 575 q 474 625 474 596 l 474 686 q 456 719 474 710 q 411 728 439 728 l 104 728 l 104 800 l 410 800 q 454 809 442 800 q 467 839 467 818 l 467 881 q 454 910 467 901 q 410 919 442 919 l 83 919 l 83 992 l 410 992 q 526 963 492 992 q 560 886 560 935 l 560 849 q 544 795 560 817 q 501 768 528 774 q 547 742 529 761 q 565 688 565 724 l 565 608 q 558 568 565 588 q 533 534 551 549 q 486 511 515 519 q 411 503 457 503 l 83 503 m 110 -42 l 1114 1033 l 1229 1033 l 224 -42 l 110 -42 m 928 -14 q 853 -6 882 -14 q 806 17 824 3 q 781 51 788 32 q 774 92 774 71 l 774 171 q 792 226 774 207 q 838 251 810 244 q 795 278 811 257 q 779 332 779 300 l 779 369 q 813 447 779 418 q 929 475 847 475 l 1174 475 q 1290 447 1256 475 q 1324 369 1324 418 l 1324 332 q 1308 278 1324 300 q 1265 251 1292 257 q 1311 226 1293 244 q 1329 171 1329 207 l 1329 92 q 1322 51 1329 71 q 1297 17 1315 32 q 1250 -6 1279 3 q 1175 -14 1221 -14 l 928 -14 m 1238 169 q 1220 202 1238 193 q 1175 211 1203 211 l 928 211 q 883 202 900 211 q 865 169 865 193 l 865 108 q 883 69 865 79 q 928 58 900 58 l 1175 58 q 1220 69 1203 58 q 1238 108 1238 79 l 1238 169 m 1231 364 q 1218 394 1231 385 q 1174 403 1206 403 l 929 403 q 885 394 897 403 q 872 364 872 385 l 872 322 q 885 292 872 301 q 929 283 897 283 l 1174 283 q 1218 292 1206 283 q 1231 322 1231 301 l 1231 364 z "},"⅝":{"ha":1413,"x_min":83,"x_max":1329,"o":"m 83 0 m 83 503 l 83 575 l 433 575 q 494 619 494 575 l 494 707 q 433 753 494 753 l 83 753 l 83 992 l 571 992 l 571 919 l 176 919 l 176 825 l 433 825 q 551 792 517 825 q 586 707 586 760 l 586 621 q 551 535 586 568 q 433 503 517 503 l 83 503 m 124 -42 l 1128 1033 l 1243 1033 l 238 -42 l 124 -42 m 928 -14 q 853 -6 882 -14 q 806 17 824 3 q 781 51 788 32 q 774 92 774 71 l 774 171 q 792 226 774 207 q 838 251 810 244 q 795 278 811 257 q 779 332 779 300 l 779 369 q 813 447 779 418 q 929 475 847 475 l 1174 475 q 1290 447 1256 475 q 1324 369 1324 418 l 1324 332 q 1308 278 1324 300 q 1265 251 1292 257 q 1311 226 1293 244 q 1329 171 1329 207 l 1329 92 q 1322 51 1329 71 q 1297 17 1315 32 q 1250 -6 1279 3 q 1175 -14 1221 -14 l 928 -14 m 1238 169 q 1220 202 1238 193 q 1175 211 1203 211 l 928 211 q 883 202 900 211 q 865 169 865 193 l 865 108 q 883 69 865 79 q 928 58 900 58 l 1175 58 q 1220 69 1203 58 q 1238 108 1238 79 l 1238 169 m 1231 364 q 1218 394 1231 385 q 1174 403 1206 403 l 929 403 q 885 394 897 403 q 872 364 872 385 l 872 322 q 885 292 872 301 q 929 283 897 283 l 1174 283 q 1218 292 1206 283 q 1231 322 1231 301 l 1231 364 z "},"⅞":{"ha":1442,"x_min":83,"x_max":1358,"o":"m 83 0 m 206 503 l 532 919 l 89 919 l 89 992 l 636 992 l 636 933 l 311 503 l 206 503 m 83 -42 l 1088 1033 l 1203 1033 l 197 -42 l 83 -42 m 957 -14 q 882 -6 911 -14 q 835 17 853 3 q 810 51 817 32 q 803 92 803 71 l 803 171 q 821 226 803 207 q 867 251 839 244 q 824 278 840 257 q 808 332 808 300 l 808 369 q 842 447 808 418 q 958 475 876 475 l 1203 475 q 1319 447 1285 475 q 1353 369 1353 418 l 1353 332 q 1337 278 1353 300 q 1294 251 1321 257 q 1340 226 1322 244 q 1358 171 1358 207 l 1358 92 q 1351 51 1358 71 q 1326 17 1344 32 q 1279 -6 1308 3 q 1204 -14 1250 -14 l 957 -14 m 1267 169 q 1249 202 1267 193 q 1204 211 1232 211 l 957 211 q 912 202 929 211 q 894 169 894 193 l 894 108 q 912 69 894 79 q 957 58 929 58 l 1204 58 q 1249 69 1232 58 q 1267 108 1267 79 l 1267 169 m 1260 364 q 1247 394 1260 385 q 1203 403 1235 403 l 958 403 q 914 394 926 403 q 901 364 901 385 l 901 322 q 914 292 901 301 q 958 283 926 283 l 1203 283 q 1247 292 1235 283 q 1260 322 1260 301 l 1260 364 z "},"−":{"ha":754,"x_min":56,"x_max":697,"o":"m 56 453 l 56 556 l 697 556 l 697 453 l 56 453 z "},"≈":{"ha":754,"x_min":56,"x_max":697,"o":"m 56 285 m 697 317 q 624 292 665 299 q 533 285 582 285 q 453 292 492 285 q 378 306 415 299 q 301 321 340 314 q 219 328 263 328 q 126 317 169 328 q 56 290 82 306 l 56 376 q 129 401 88 393 q 219 408 171 408 q 301 401 263 408 q 376 386 339 394 q 453 371 414 378 q 533 364 492 364 q 626 375 583 364 q 697 401 669 386 l 697 317 m 697 649 q 624 624 665 631 q 533 617 582 617 q 453 624 492 617 q 378 638 415 631 q 301 653 340 646 q 219 660 263 660 q 126 649 169 660 q 56 622 82 638 l 56 708 q 129 733 88 725 q 219 740 171 740 q 301 733 263 740 q 376 718 339 726 q 453 703 414 710 q 533 696 492 696 q 626 707 583 696 q 697 733 669 718 l 697 649 z "},"≠":{"ha":746,"x_min":-187,"x_max":932,"o":"m -187 -42 l 144 314 l 56 314 l 56 417 l 240 417 l 404 592 l 56 592 l 56 694 l 500 694 l 817 1033 l 932 1033 l 614 694 l 697 694 l 697 592 l 518 592 l 354 417 l 697 417 l 697 314 l 258 314 l -74 -42 l -187 -42 z "},"≤":{"ha":746,"x_min":56,"x_max":697,"o":"m 88 460 l 88 551 l 657 879 l 657 758 l 208 504 l 657 249 l 657 128 l 88 460 m 56 0 l 56 103 l 697 103 l 697 0 l 56 0 z "},"≥":{"ha":746,"x_min":56,"x_max":697,"o":"m 88 128 l 88 249 l 536 504 l 88 758 l 88 879 l 657 551 l 657 460 l 88 128 m 56 0 l 56 103 l 697 103 l 697 0 l 56 0 z "},"△":{"ha":1082,"x_min":31,"x_max":1051,"o":"m 31 264 l 542 742 l 1051 264 l 31 264 z "}}}
